<svg width="251" height="62" viewBox="0 0 251 62" fill="none" xmlns="http://www.w3.org/2000/svg">
<path d="M205.201 48.4294H191.443V42.9971H205.201V48.4294Z" fill="#1C3152"/>
<path d="M224.363 48.4294H205.202V42.9971H224.363V48.4294Z" fill="#F8E133"/>
<path d="M250.453 48.4294H224.362V42.9971H250.453V48.4294Z" fill="#33A93B"/>
<path d="M83.5046 23.3776C83.9381 23.0016 84.1553 22.5057 84.1553 21.8888C84.1553 21.2531 83.9381 20.7427 83.5046 20.3571C83.0711 19.9719 82.4977 19.7794 81.7846 19.7794H79.3573C79.2605 19.7794 79.2126 19.8273 79.2126 19.9236V23.7965C79.2126 23.8933 79.2605 23.9412 79.3573 23.9412H81.7846C82.4977 23.9412 83.0711 23.753 83.5046 23.3776ZM86.2943 15.9495C87.3345 16.4986 88.1386 17.279 88.7076 18.2907C89.2756 19.3023 89.5601 20.4635 89.5601 21.7737C89.5601 23.0645 89.2606 24.2015 88.664 25.1841C88.0665 26.1668 87.228 26.9283 86.1496 27.4673C85.0697 28.0072 83.8273 28.2767 82.4208 28.2767H79.3573C79.2605 28.2767 79.2126 28.3251 79.2126 28.4214V34.9244C79.2126 35.0594 79.1739 35.1658 79.097 35.2423C79.0195 35.3197 78.9136 35.3579 78.7786 35.3579H74.2123C74.0773 35.3579 73.9709 35.3197 73.8944 35.2423C73.8175 35.1658 73.7783 35.0594 73.7783 34.9244V15.559C73.7783 15.4245 73.8175 15.3186 73.8944 15.2411C73.9709 15.1642 74.0773 15.1255 74.2123 15.1255H82.6811C84.0489 15.1255 85.2531 15.4003 86.2943 15.9495Z" fill="#1C3152"/>
<path d="M97.4796 28.4499H101.093C101.208 28.4499 101.247 28.3919 101.208 28.2767L99.3583 21.8022C99.3389 21.7442 99.3099 21.7156 99.2717 21.7156C99.233 21.7156 99.2035 21.7442 99.1846 21.8022L97.364 28.2767C97.3446 28.3919 97.3833 28.4499 97.4796 28.4499ZM103.145 34.982L102.509 32.7274C102.47 32.6509 102.422 32.6122 102.364 32.6122H96.2372C96.1791 32.6122 96.1307 32.6509 96.0925 32.7274L95.4563 34.982C95.3987 35.2326 95.2347 35.3579 94.9652 35.3579H90.0225C89.6756 35.3579 89.5498 35.1944 89.6471 34.8663L95.7456 15.4724C95.8221 15.2411 95.9861 15.1255 96.2372 15.1255H102.364C102.614 15.1255 102.778 15.2411 102.855 15.4724L108.954 34.8663C108.973 34.9051 108.983 34.9631 108.983 35.04C108.983 35.2524 108.848 35.3579 108.578 35.3579H103.636C103.366 35.3579 103.203 35.2326 103.145 34.982Z" fill="#1C3152"/>
<path d="M117.335 19.9236V23.3055C117.335 23.4017 117.384 23.4501 117.48 23.4501H120.197C120.813 23.4501 121.314 23.2813 121.7 22.944C122.085 22.6073 122.278 22.1685 122.278 21.629C122.278 21.0702 122.085 20.6222 121.7 20.285C121.314 19.9482 120.813 19.7794 120.197 19.7794H117.48C117.384 19.7794 117.335 19.8273 117.335 19.9236ZM122.047 35.04L118.867 27.6986C118.828 27.6221 118.771 27.5834 118.694 27.5834H117.48C117.384 27.5834 117.335 27.6313 117.335 27.7276V34.9244C117.335 35.0594 117.296 35.1658 117.22 35.2428C117.143 35.3197 117.037 35.3579 116.902 35.3579H112.335C112.2 35.3579 112.094 35.3197 112.017 35.2428C111.94 35.1658 111.902 35.0594 111.902 34.9244V15.559C111.902 15.4245 111.94 15.3186 112.017 15.2411C112.094 15.1647 112.2 15.1255 112.335 15.1255H121.093C122.403 15.1255 123.554 15.396 124.547 15.9349C125.539 16.4749 126.31 17.2311 126.859 18.2041C127.408 19.177 127.683 20.2995 127.683 21.571C127.683 22.8429 127.369 23.9557 126.744 24.9093C126.117 25.8634 125.255 26.5621 124.157 27.0052C124.06 27.0439 124.031 27.1112 124.07 27.2075L127.741 34.8378C127.779 34.9534 127.798 35.0212 127.798 35.04C127.798 35.1368 127.76 35.2137 127.683 35.2713C127.606 35.3294 127.509 35.3579 127.394 35.3579H122.538C122.287 35.3579 122.123 35.2524 122.047 35.04Z" fill="#1C3152"/>
<path d="M142.279 15.2411C142.355 15.1642 142.462 15.1255 142.597 15.1255H147.163C147.298 15.1255 147.404 15.1642 147.481 15.2411C147.558 15.3186 147.597 15.4245 147.597 15.559V34.9244C147.597 35.0594 147.558 35.1658 147.481 35.2423C147.404 35.3197 147.298 35.3579 147.163 35.3579H142.799C142.568 35.3579 142.394 35.2616 142.279 35.0691L136.382 25.2417C136.343 25.1841 136.305 25.1599 136.266 25.1696C136.228 25.1798 136.209 25.2228 136.209 25.2998L136.266 34.9244C136.266 35.0594 136.228 35.1658 136.151 35.2423C136.074 35.3197 135.968 35.3579 135.833 35.3579H131.266C131.132 35.3579 131.025 35.3197 130.948 35.2423C130.871 35.1658 130.833 35.0594 130.833 34.9244V15.559C130.833 15.4245 130.871 15.3186 130.948 15.2411C131.025 15.1642 131.132 15.1255 131.266 15.1255H135.631C135.862 15.1255 136.036 15.2223 136.151 15.4144L142.018 25.2417C142.057 25.2998 142.095 25.324 142.134 25.3138C142.172 25.3046 142.192 25.2611 142.192 25.1841L142.163 15.559C142.163 15.4245 142.201 15.3186 142.279 15.2411Z" fill="#1C3152"/>
<path d="M158.378 28.4502H161.991C162.106 28.4502 162.145 28.3921 162.106 28.277L160.256 21.8025C160.237 21.7444 160.208 21.7159 160.17 21.7159C160.131 21.7159 160.101 21.7444 160.083 21.8025L158.262 28.277C158.243 28.3921 158.281 28.4502 158.378 28.4502ZM164.043 34.9822L163.407 32.7276C163.368 32.6512 163.32 32.6125 163.262 32.6125H157.135C157.077 32.6125 157.029 32.6512 156.99 32.7276L156.354 34.9822C156.297 35.2328 156.133 35.3582 155.863 35.3582H150.92C150.574 35.3582 150.448 35.1946 150.545 34.8666L156.644 15.4727C156.72 15.2414 156.884 15.1258 157.135 15.1258H163.262C163.512 15.1258 163.676 15.2414 163.753 15.4727L169.852 34.8666C169.871 34.9053 169.881 34.9634 169.881 35.0403C169.881 35.2527 169.746 35.3582 169.476 35.3582H164.534C164.264 35.3582 164.101 35.2328 164.043 34.9822Z" fill="#1C3152"/>
<path d="M186.24 15.1255H190.749C190.884 15.1255 190.989 15.1642 191.067 15.2411C191.143 15.3181 191.182 15.4245 191.182 15.559V34.9244C191.182 35.0594 191.143 35.1653 191.067 35.2423C190.989 35.3197 190.884 35.3579 190.749 35.3579H186.182C186.047 35.3579 185.941 35.3197 185.864 35.2423C185.787 35.1653 185.748 35.0594 185.748 34.9244V24.4323C185.748 24.3558 185.729 24.3123 185.69 24.3021C185.652 24.2929 185.613 24.3166 185.575 24.3747L183.609 27.5829C183.494 27.7755 183.32 27.8718 183.089 27.8718H180.892C180.661 27.8718 180.488 27.7755 180.372 27.5829L178.407 24.3747C178.368 24.3166 178.329 24.2929 178.291 24.3021C178.252 24.3123 178.233 24.3558 178.233 24.4323V34.9244C178.233 35.0594 178.194 35.1653 178.118 35.2423C178.041 35.3197 177.935 35.3579 177.8 35.3579H173.233C173.098 35.3579 172.992 35.3197 172.915 35.2423C172.838 35.1653 172.8 35.0594 172.8 34.9244V15.559C172.8 15.4245 172.838 15.3181 172.915 15.2411C172.992 15.1642 173.098 15.1255 173.233 15.1255H177.742C177.973 15.1255 178.147 15.2223 178.263 15.4144L181.904 21.2821C181.962 21.3973 182.019 21.3973 182.078 21.2821L185.719 15.4144C185.835 15.2223 186.008 15.1255 186.24 15.1255Z" fill="#1C3152"/>
<path d="M194.709 35.2423C194.632 35.1653 194.594 35.0594 194.594 34.9244V15.559C194.594 15.4245 194.632 15.3181 194.709 15.2411C194.786 15.1642 194.893 15.1255 195.027 15.1255H199.595C199.729 15.1255 199.835 15.1642 199.912 15.2411C199.989 15.3181 200.028 15.4245 200.028 15.559V34.9244C200.028 35.0594 199.989 35.1653 199.912 35.2423C199.835 35.3197 199.729 35.3579 199.595 35.3579H195.027C194.893 35.3579 194.786 35.3197 194.709 35.2423Z" fill="#1C3152"/>
<path d="M208.871 19.9236V23.3055C208.871 23.4017 208.92 23.4501 209.016 23.4501H211.733C212.349 23.4501 212.85 23.2813 213.236 22.944C213.621 22.6073 213.814 22.1685 213.814 21.629C213.814 21.0702 213.621 20.6222 213.236 20.285C212.85 19.9482 212.349 19.7794 211.733 19.7794H209.016C208.92 19.7794 208.871 19.8273 208.871 19.9236ZM213.583 35.04L210.404 27.6986C210.364 27.6221 210.307 27.5834 210.23 27.5834H209.016C208.92 27.5834 208.871 27.6313 208.871 27.7276V34.9244C208.871 35.0594 208.833 35.1658 208.756 35.2428C208.679 35.3197 208.573 35.3579 208.438 35.3579H203.871C203.737 35.3579 203.63 35.3197 203.553 35.2428C203.476 35.1658 203.438 35.0594 203.438 34.9244V15.559C203.438 15.4245 203.476 15.3186 203.553 15.2411C203.63 15.1647 203.737 15.1255 203.871 15.1255H212.629C213.939 15.1255 215.09 15.396 216.083 15.9349C217.075 16.4749 217.846 17.2311 218.395 18.2041C218.944 19.177 219.219 20.2995 219.219 21.571C219.219 22.8429 218.905 23.9557 218.28 24.9093C217.653 25.8634 216.791 26.5621 215.693 27.0052C215.596 27.0439 215.567 27.1112 215.606 27.2075L219.277 34.8378C219.315 34.9534 219.334 35.0212 219.334 35.04C219.334 35.1368 219.296 35.2137 219.219 35.2713C219.142 35.3294 219.046 35.3579 218.93 35.3579H214.074C213.823 35.3579 213.659 35.2524 213.583 35.04Z" fill="#1C3152"/>
<path d="M222.484 35.2423C222.407 35.1653 222.369 35.0594 222.369 34.9244V15.559C222.369 15.4245 222.407 15.3181 222.484 15.2411C222.561 15.1642 222.667 15.1255 222.802 15.1255H227.369C227.503 15.1255 227.609 15.1642 227.687 15.2411C227.763 15.3181 227.802 15.4245 227.802 15.559V34.9244C227.802 35.0594 227.763 35.1653 227.687 35.2423C227.609 35.3197 227.503 35.3579 227.369 35.3579H222.802C222.667 35.3579 222.561 35.3197 222.484 35.2423Z" fill="#1C3152"/>
<path d="M244.654 15.1255H249.163C249.298 15.1255 249.403 15.1642 249.481 15.2411C249.557 15.3181 249.596 15.4245 249.596 15.559V34.9244C249.596 35.0594 249.557 35.1653 249.481 35.2423C249.403 35.3197 249.298 35.3579 249.163 35.3579H244.596C244.461 35.3579 244.355 35.3197 244.278 35.2423C244.201 35.1653 244.162 35.0594 244.162 34.9244V24.4323C244.162 24.3558 244.143 24.3123 244.104 24.3021C244.066 24.2929 244.027 24.3166 243.989 24.3747L242.023 27.5829C241.908 27.7755 241.735 27.8718 241.503 27.8718H239.306C239.075 27.8718 238.902 27.7755 238.786 27.5829L236.821 24.3747C236.782 24.3166 236.743 24.2929 236.705 24.3021C236.667 24.3123 236.647 24.3558 236.647 24.4323V34.9244C236.647 35.0594 236.608 35.1653 236.532 35.2423C236.455 35.3197 236.349 35.3579 236.214 35.3579H231.647C231.512 35.3579 231.406 35.3197 231.329 35.2423C231.252 35.1653 231.214 35.0594 231.214 34.9244V15.559C231.214 15.4245 231.252 15.3181 231.329 15.2411C231.406 15.1642 231.512 15.1255 231.647 15.1255H236.156C236.387 15.1255 236.561 15.2223 236.677 15.4144L240.318 21.2821C240.376 21.3973 240.434 21.3973 240.492 21.2821L244.133 15.4144C244.249 15.2223 244.422 15.1255 244.654 15.1255Z" fill="#1C3152"/>
<path d="M79.7209 44.2174C80.0451 43.9111 80.2067 43.51 80.2067 43.0131C80.2067 42.5046 80.0451 42.0944 79.7209 41.7828C79.3977 41.4707 78.9705 41.3144 78.4388 41.3144H76.2389C76.1803 41.3144 76.1518 41.3439 76.1518 41.4015V44.5899C76.1518 44.648 76.1803 44.6765 76.2389 44.6765H78.4388C78.9705 44.6765 79.3977 44.5236 79.7209 44.2174ZM80.8134 39.6685C81.3906 39.9805 81.8386 40.4223 82.156 40.9941C82.4734 41.566 82.6326 42.2216 82.6326 42.9609C82.6326 43.6885 82.4681 44.3296 82.1391 44.8845C81.8091 45.439 81.347 45.8696 80.7529 46.1754C80.1573 46.4816 79.4722 46.6345 78.6996 46.6345H76.2389C76.1803 46.6345 76.1518 46.6636 76.1518 46.7211V51.1403C76.1518 51.1979 76.131 51.2468 76.0913 51.2874C76.0507 51.3281 76.0018 51.3479 75.9437 51.3479H73.9161C73.8585 51.3479 73.8091 51.3281 73.7685 51.2874C73.7278 51.2468 73.708 51.1979 73.708 51.1403V39.4087C73.708 39.3506 73.7278 39.3017 73.7685 39.2611C73.8091 39.2209 73.8585 39.2006 73.9161 39.2006H78.8036C79.5651 39.2006 80.2347 39.3564 80.8134 39.6685Z" fill="#1C3152"/>
<path d="M87.9692 41.4015V44.3649C87.9692 44.4225 87.9977 44.4515 88.0563 44.4515H90.3259C90.8106 44.4515 91.2064 44.3069 91.5127 44.018C91.8189 43.7297 91.9718 43.3542 91.9718 42.8917C91.9718 42.4296 91.8189 42.0513 91.5127 41.7567C91.2064 41.462 90.8106 41.3149 90.3259 41.3149H88.0563C87.9977 41.3149 87.9692 41.344 87.9692 41.4015ZM91.937 51.1921L89.7714 46.3921C89.7487 46.3462 89.7133 46.3229 89.6674 46.3229H88.0563C87.9977 46.3229 87.9692 46.3515 87.9692 46.4096V51.1403C87.9692 51.1984 87.9493 51.2473 87.9087 51.2874C87.868 51.3281 87.8187 51.3484 87.7611 51.3484H85.7334C85.6759 51.3484 85.6265 51.3281 85.5868 51.2874C85.5462 51.2473 85.5254 51.1984 85.5254 51.1403V39.4261C85.5254 39.3685 85.5462 39.3192 85.5868 39.2785C85.6265 39.2384 85.6759 39.218 85.7334 39.218H90.6897C91.4285 39.218 92.0787 39.3685 92.639 39.6685C93.1997 39.9694 93.6323 40.3961 93.9385 40.9511C94.2448 41.5055 94.3977 42.1466 94.3977 42.8743C94.3977 43.66 94.2013 44.333 93.8089 44.8933C93.416 45.4535 92.8669 45.8493 92.1629 46.0801C92.1053 46.1038 92.0874 46.1439 92.1112 46.2015L94.4678 51.1055C94.4906 51.152 94.5017 51.1868 94.5017 51.2095C94.5017 51.3019 94.4383 51.3484 94.3116 51.3484H92.1799C92.0647 51.3484 91.9834 51.2961 91.937 51.1921Z" fill="#1C3152"/>
<path d="M105.914 41.2542C105.873 41.2948 105.824 41.3147 105.766 41.3147H100.082C100.025 41.3147 99.9965 41.3442 99.9965 41.4018V44.0875C99.9965 44.1455 100.025 44.1741 100.082 44.1741H103.808C103.866 44.1741 103.915 44.1944 103.956 44.235C103.995 44.2757 104.016 44.3245 104.016 44.3821V46.0629C104.016 46.1209 103.995 46.1698 103.956 46.2105C103.915 46.2511 103.866 46.2709 103.808 46.2709H100.082C100.025 46.2709 99.9965 46.3 99.9965 46.3575V49.1651C99.9965 49.2227 100.025 49.2513 100.082 49.2513H105.766C105.824 49.2513 105.873 49.2716 105.914 49.3122C105.954 49.3529 105.974 49.4017 105.974 49.4593V51.1406C105.974 51.1982 105.954 51.247 105.914 51.2877C105.873 51.3283 105.824 51.3481 105.766 51.3481H97.7603C97.7027 51.3481 97.6539 51.3283 97.6132 51.2877C97.5726 51.247 97.5527 51.1982 97.5527 51.1406V39.4263C97.5527 39.3688 97.5726 39.3194 97.6132 39.2788C97.6539 39.2381 97.7027 39.2183 97.7603 39.2183H105.766C105.824 39.2183 105.873 39.2381 105.914 39.2788C105.954 39.3194 105.974 39.3688 105.974 39.4263V41.1071C105.974 41.1647 105.954 41.214 105.914 41.2542Z" fill="#1C3152"/>
<path d="M117.403 41.254C117.362 41.2946 117.313 41.3144 117.255 41.3144H111.589C111.53 41.3144 111.502 41.3439 111.502 41.4015V44.0872C111.502 44.1453 111.53 44.1738 111.589 44.1738H115.314C115.372 44.1738 115.421 44.1941 115.461 44.2348C115.502 44.2754 115.522 44.3243 115.522 44.3819V46.0626C115.522 46.1207 115.502 46.1696 115.461 46.2102C115.421 46.2509 115.372 46.2707 115.314 46.2707H111.589C111.53 46.2707 111.502 46.2997 111.502 46.3573V51.1403C111.502 51.1979 111.483 51.2468 111.442 51.2874C111.401 51.3281 111.352 51.3479 111.294 51.3479H109.267C109.209 51.3479 109.16 51.3281 109.12 51.2874C109.079 51.2468 109.059 51.1979 109.059 51.1403V39.4261C109.059 39.3685 109.079 39.3192 109.12 39.2785C109.16 39.2379 109.209 39.218 109.267 39.218H117.255C117.313 39.218 117.362 39.2379 117.403 39.2785C117.443 39.3192 117.463 39.3685 117.463 39.4261V41.1069C117.463 41.1644 117.443 41.2138 117.403 41.254Z" fill="#1C3152"/>
<path d="M128.51 41.254C128.469 41.2946 128.42 41.3144 128.362 41.3144H122.678C122.621 41.3144 122.593 41.3439 122.593 41.4015V44.0872C122.593 44.1453 122.621 44.1738 122.678 44.1738H126.404C126.462 44.1738 126.511 44.1941 126.552 44.2348C126.591 44.2754 126.612 44.3243 126.612 44.3819V46.0626C126.612 46.1207 126.591 46.1696 126.552 46.2102C126.511 46.2509 126.462 46.2707 126.404 46.2707H122.678C122.621 46.2707 122.593 46.2997 122.593 46.3573V49.1649C122.593 49.2225 122.621 49.251 122.678 49.251H128.362C128.42 49.251 128.469 49.2713 128.51 49.312C128.55 49.3526 128.57 49.4015 128.57 49.4591V51.1403C128.57 51.1979 128.55 51.2468 128.51 51.2874C128.469 51.3281 128.42 51.3479 128.362 51.3479H120.356C120.299 51.3479 120.25 51.3281 120.209 51.2874C120.169 51.2468 120.149 51.1979 120.149 51.1403V39.4261C120.149 39.3685 120.169 39.3192 120.209 39.2785C120.25 39.2379 120.299 39.218 120.356 39.218H128.362C128.42 39.218 128.469 39.2379 128.51 39.2785C128.55 39.3192 128.57 39.3685 128.57 39.4261V41.1069C128.57 41.1644 128.55 41.2138 128.51 41.254Z" fill="#1C3152"/>
<path d="M131.717 51.2874C131.676 51.2473 131.655 51.1979 131.655 51.1403V39.4261C131.655 39.3685 131.676 39.3192 131.717 39.2785C131.756 39.2384 131.806 39.218 131.863 39.218H133.891C133.949 39.218 133.998 39.2384 134.039 39.2785C134.079 39.3192 134.099 39.3685 134.099 39.4261V51.1403C134.099 51.1979 134.079 51.2473 134.039 51.2874C133.998 51.3281 133.949 51.3479 133.891 51.3479H131.863C131.806 51.3479 131.756 51.3281 131.717 51.2874Z" fill="#1C3152"/>
<path d="M146.116 39.2788C146.157 39.3194 146.176 39.3688 146.176 39.4263V41.1241C146.176 41.1821 146.157 41.2315 146.116 41.2716C146.075 41.3123 146.026 41.3321 145.968 41.3321H142.867C142.809 41.3321 142.78 41.3611 142.78 41.4187V51.1406C142.78 51.1982 142.76 51.247 142.719 51.2877C142.679 51.3283 142.63 51.3481 142.572 51.3481H140.544C140.487 51.3481 140.438 51.3283 140.397 51.2877C140.357 51.247 140.337 51.1982 140.337 51.1406V41.4187C140.337 41.3611 140.308 41.3321 140.251 41.3321H137.235C137.176 41.3321 137.128 41.3123 137.088 41.2716C137.047 41.2315 137.027 41.1821 137.027 41.1241V39.4263C137.027 39.3688 137.047 39.3194 137.088 39.2788C137.128 39.2386 137.176 39.2183 137.235 39.2183H145.968C146.026 39.2183 146.075 39.2386 146.116 39.2788Z" fill="#1C3152"/>
<path d="M151.175 50.9665C150.499 50.62 149.974 50.1319 149.598 49.5024C149.222 48.8725 149.035 48.1477 149.035 47.3277V39.4254C149.035 39.3678 149.055 39.319 149.096 39.2783C149.136 39.2377 149.185 39.2174 149.243 39.2174H151.27C151.327 39.2174 151.377 39.2377 151.417 39.2783C151.458 39.319 151.478 39.3678 151.478 39.4254V47.3451C151.478 47.9571 151.666 48.4511 152.041 48.8265C152.416 49.202 152.911 49.3897 153.523 49.3897C154.135 49.3897 154.63 49.202 155.005 48.8265C155.379 48.4511 155.568 47.9571 155.568 47.3451V39.4254C155.568 39.3678 155.588 39.319 155.628 39.2783C155.669 39.2377 155.718 39.2174 155.776 39.2174H157.803C157.861 39.2174 157.91 39.2377 157.951 39.2783C157.991 39.319 158.011 39.3678 158.011 39.4254V47.3277C158.011 48.1477 157.823 48.8725 157.448 49.5024C157.072 50.1319 156.547 50.62 155.871 50.9665C155.196 51.3129 154.412 51.4866 153.523 51.4866C152.634 51.4866 151.851 51.3129 151.175 50.9665Z" fill="#1C3152"/>
<path d="M163.852 41.4015V44.3649C163.852 44.4225 163.881 44.4515 163.94 44.4515H166.209C166.694 44.4515 167.09 44.3069 167.396 44.018C167.702 43.7297 167.855 43.3542 167.855 42.8917C167.855 42.4296 167.702 42.0513 167.396 41.7567C167.09 41.462 166.694 41.3149 166.209 41.3149H163.94C163.881 41.3149 163.852 41.344 163.852 41.4015ZM167.82 51.1921L165.655 46.3921C165.632 46.3462 165.597 46.3229 165.551 46.3229H163.94C163.881 46.3229 163.852 46.3515 163.852 46.4096V51.1403C163.852 51.1984 163.833 51.2473 163.792 51.2874C163.751 51.3281 163.702 51.3484 163.644 51.3484H161.617C161.559 51.3484 161.51 51.3281 161.47 51.2874C161.429 51.2473 161.409 51.1984 161.409 51.1403V39.4261C161.409 39.3685 161.429 39.3192 161.47 39.2785C161.51 39.2384 161.559 39.218 161.617 39.218H166.573C167.312 39.218 167.962 39.3685 168.522 39.6685C169.083 39.9694 169.516 40.3961 169.822 40.9511C170.128 41.5055 170.281 42.1466 170.281 42.8743C170.281 43.66 170.085 44.333 169.692 44.8933C169.299 45.4535 168.75 45.8493 168.046 46.0801C167.989 46.1038 167.971 46.1439 167.994 46.2015L170.351 51.1055C170.374 51.152 170.385 51.1868 170.385 51.2095C170.385 51.3019 170.322 51.3484 170.195 51.3484H168.063C167.948 51.3484 167.867 51.2961 167.82 51.1921Z" fill="#1C3152"/>
<path d="M176.918 47.5185H179.967C180.037 47.5185 180.06 47.4836 180.037 47.4144L178.477 42.2676C178.466 42.2221 178.449 42.2018 178.425 42.2071C178.402 42.2134 178.384 42.2332 178.373 42.2676L176.848 47.4144C176.837 47.4836 176.859 47.5185 176.918 47.5185ZM181.181 51.1747L180.661 49.4765C180.637 49.4305 180.609 49.4073 180.574 49.4073H176.311C176.276 49.4073 176.248 49.4305 176.224 49.4765L175.721 51.1747C175.687 51.2903 175.612 51.3484 175.496 51.3484H173.296C173.227 51.3484 173.175 51.3281 173.14 51.2874C173.105 51.2473 173.099 51.1868 173.123 51.1055L176.866 39.3913C176.9 39.2761 176.975 39.218 177.091 39.218H179.811C179.927 39.218 180.002 39.2761 180.037 39.3913L183.78 51.1055C183.791 51.1287 183.797 51.1573 183.797 51.1921C183.797 51.2961 183.734 51.3484 183.606 51.3484H181.405C181.29 51.3484 181.216 51.2903 181.181 51.1747Z" fill="#1C3152"/>
<path d="M61.6542 32.137V29.7144C61.6542 29.4079 61.4102 29.1595 61.1092 29.1595H57.5606C57.4886 28.0346 57.3493 26.9287 57.1453 25.8459L60.5733 24.9301C60.8646 24.8526 61.0387 24.549 60.9622 24.2524L60.3582 21.9095C60.2817 21.6129 59.9839 21.4357 59.6927 21.5135L56.2653 22.429C55.9042 21.3281 55.4802 20.2569 54.9874 19.2247L58.0627 17.4423C58.3244 17.2905 58.4158 16.9514 58.2668 16.6853L57.0896 14.5802C56.9406 14.3137 56.6076 14.2206 56.3463 14.3721L53.2657 16.1581C52.6065 15.1432 51.8798 14.1782 51.0943 13.2663L53.6042 10.711C53.8169 10.4941 53.8169 10.1427 53.6042 9.92576L51.9218 8.21304C51.7091 7.99612 51.364 7.99612 51.151 8.21304L48.6411 10.7683C47.8178 10.0333 46.9535 9.34506 46.044 8.71766L47.8296 5.60433C47.9815 5.33964 47.8939 4.99992 47.634 4.84528L45.5793 3.62373C45.3194 3.46909 44.9857 3.55826 44.8339 3.82296L43.0469 6.93876C42.0095 6.41044 40.9325 5.95182 39.8224 5.56505L40.7465 2.08193C40.8247 1.7861 40.653 1.48141 40.3622 1.40179L38.0653 0.769791C37.7751 0.689816 37.4755 0.864979 37.3973 1.16081L36.4739 4.6411C35.3511 4.41321 34.2018 4.26211 33.0327 4.18461V0.571266C33.0327 0.26482 32.7884 0.0160484 32.4874 0.0160484H30.1082C29.8072 0.0160484 29.5632 0.26482 29.5632 0.571266V4.18461C28.4584 4.25751 27.3724 4.39941 26.3089 4.60713L25.4095 1.11693C25.3334 0.820389 25.0352 0.643105 24.744 0.720955L22.4426 1.33562C22.1517 1.41348 21.9776 1.71709 22.0541 2.01328L22.9531 5.50312C21.872 5.87079 20.82 6.30287 19.8062 6.8043L18.0557 3.67292C17.9066 3.40681 17.574 3.31374 17.3123 3.46555L15.2445 4.66375C14.9832 4.81556 14.8918 5.15456 15.0408 5.42067L16.7945 8.55735C15.7978 9.22899 14.8501 9.96858 13.9545 10.7683L11.4446 8.21304C11.2319 7.99612 10.8868 7.99612 10.6741 8.21304L8.99168 9.92576C8.77864 10.1427 8.77864 10.4937 8.99168 10.7106L11.5012 13.2663C10.7794 14.1046 10.1034 14.9847 9.48726 15.9107L6.42966 14.0926C6.17005 13.9379 5.83607 14.0271 5.6842 14.2918L4.48451 16.3838C4.33264 16.6485 4.42022 16.9883 4.68017 17.1429L7.73986 18.9625C7.22134 20.0191 6.77094 21.1154 6.39108 22.2457L2.97031 21.3047C2.67977 21.2251 2.38054 21.3999 2.302 21.6961L1.68165 24.0348C1.60311 24.3303 1.77514 24.6353 2.06568 24.715L5.48367 25.6552C5.25986 26.7985 5.11111 27.9688 5.035 29.1592H1.48669C1.18538 29.1592 0.941406 29.4079 0.941406 29.7144V32.137C0.941406 32.4434 1.18538 32.6918 1.48669 32.6918H5.035C5.10729 33.8168 5.24596 34.9226 5.45031 36.0055L2.02258 36.9213C1.73135 36.9988 1.55724 37.3024 1.63335 37.5989L2.23736 39.9419C2.31382 40.2384 2.61165 40.4157 2.90289 40.3379L6.33026 39.422C6.69135 40.5229 7.11534 41.5944 7.6078 42.6267L4.53282 44.4091C4.27113 44.5609 4.18007 44.8996 4.32882 45.166L5.50592 47.2712C5.65501 47.5376 5.98759 47.6307 6.24929 47.4789L9.32983 45.6933C9.9891 46.7082 10.7158 47.6728 11.5012 48.5847L8.99133 51.1404C8.77829 51.3569 8.77829 51.7087 8.99133 51.9252L10.6737 53.6383C10.8864 53.8552 11.2319 53.8552 11.4446 53.6383L13.9545 51.0827C14.7778 51.818 15.6421 52.5063 16.5516 53.1334L14.7659 56.2467C14.6141 56.5114 14.7017 56.8511 14.9616 57.0057L17.0162 58.2276C17.2762 58.3823 17.6098 58.2931 17.7617 58.0284L19.5487 54.9126C20.5864 55.4406 21.6631 55.8992 22.7731 56.2863L21.849 59.7691C21.7705 60.0649 21.9425 60.3699 22.2331 60.4496L24.5299 61.0812C24.8208 61.1615 25.1197 60.9864 25.1986 60.6902L25.9913 57.7014C26.065 57.4236 26.3347 57.2541 26.6123 57.3044C27.4158 57.4509 28.2325 57.5585 29.0597 57.6289C29.3433 57.6526 29.5632 57.8904 29.5632 58.1802L29.5629 61.2801C29.5629 61.5865 29.8072 61.835 30.1082 61.835H32.4874C32.7884 61.835 33.0323 61.5865 33.0323 61.2801V58.1806C33.0323 57.8904 33.252 57.653 33.5356 57.6285C34.2973 57.5634 35.0498 57.4658 35.7917 57.3355C36.0715 57.2867 36.3422 57.4601 36.4142 57.74L37.186 60.7344C37.2622 61.031 37.5603 61.2083 37.8516 61.1304L40.1526 60.5154C40.4438 60.4379 40.6179 60.1343 40.5415 59.8377L39.6424 56.3482C40.7236 55.9802 41.7756 55.5485 42.7893 55.0471L44.8095 58.6608L47.3511 57.1876C47.6124 57.0358 47.7038 56.6968 47.5551 56.4303L45.8011 53.294C46.7978 52.6224 47.7455 51.8824 48.6411 51.083L51.1506 53.6383C51.3637 53.8552 51.7088 53.8552 51.9218 53.6383L53.6039 51.9256C53.8169 51.7087 53.8169 51.3573 53.6039 51.1407L51.0943 48.5851C51.8162 47.7468 52.4921 46.8667 53.1083 45.9406L56.1659 47.7588C56.4259 47.9135 56.7595 47.8243 56.9114 47.5596L58.1111 45.4675C58.2629 45.2028 58.1753 44.8628 57.9154 44.7081L54.8557 42.8889C55.3742 41.8322 55.8246 40.736 56.2045 39.6053L59.6253 40.5466C59.9158 40.6263 60.215 40.4514 60.2936 40.1553L60.9139 37.8165C60.9925 37.5207 60.8204 37.216 60.5299 37.1361L57.1119 36.1962C57.3357 35.0528 57.4841 33.8826 57.5606 32.6918H61.1092C61.4102 32.6918 61.6542 32.4434 61.6542 32.137Z" fill="#36AA3B"/>
<path d="M31.3148 9.95968C23.5582 9.95296 16.7824 14.2213 13.1333 20.5824C16.4335 13.7574 23.3365 9.06581 31.3155 9.07254C39.2768 9.07961 46.158 13.7652 49.4578 20.5743C45.8122 14.2284 39.0537 9.96641 31.3148 9.95968ZM31.3159 8.45822C19.1293 8.44796 9.2409 18.496 9.23048 30.9048C9.22005 43.3138 19.0921 53.3824 31.2787 53.3931C43.4657 53.4037 53.354 43.3521 53.3645 30.943C53.3745 18.5339 43.5029 8.46884 31.3159 8.45822Z" fill="#FFF212"/>
<path d="M49.4574 20.5746C45.8117 14.2287 39.0533 9.96673 31.3144 9.96001C23.5581 9.95364 16.7819 14.2216 13.1328 20.5828C16.433 13.7581 23.3364 9.06614 31.3151 9.07322C39.2764 9.07994 46.1579 13.7655 49.4574 20.5746Z" fill="white"/>
<path d="M61.2968 31.1659L61.279 31.2342L61.2825 31.2413C61.2825 31.2483 61.279 31.2558 61.2756 31.2664C61.2721 31.2735 61.2686 31.2915 61.2544 31.3166C61.2405 31.3527 61.2193 31.3885 61.1838 31.4281C61.1769 31.4387 61.163 31.4603 61.1345 31.4893C61.1028 31.5286 61.0604 31.5643 60.9972 31.6079C60.976 31.622 60.9583 31.6365 60.9371 31.6471C60.8947 31.6723 60.8488 31.6938 60.789 31.719C60.7644 31.7296 60.7393 31.737 60.6973 31.7476L60.6163 31.7657C60.5774 31.7767 60.535 31.7798 60.503 31.7837L60.3904 31.7908L38.7679 31.737C38.5952 31.737 38.4575 31.8772 38.4575 32.0566C38.4575 32.2399 38.5952 32.3871 38.7679 32.3871H59.1525C59.1911 32.4087 59.2262 32.4228 59.2686 32.4302L59.3356 32.4483C59.3568 32.4554 59.3815 32.4589 59.4062 32.4695C59.4521 32.484 59.4945 32.5017 59.5438 32.5272C59.5685 32.5378 59.5897 32.552 59.6178 32.57C59.6568 32.5955 59.6919 32.6242 59.72 32.6528C59.7728 32.7066 59.8152 32.7643 59.8437 32.8216C59.8754 32.8899 59.8896 32.9508 59.8896 33.0155V33.0442C59.8858 33.0838 59.8788 33.1231 59.8719 33.1557C59.8403 33.2633 59.7767 33.3712 59.6919 33.4501C59.5191 33.5973 59.272 33.6836 59.011 33.6836H39.7167C39.6249 33.6836 39.5366 33.7268 39.4734 33.8057C39.4202 33.8705 39.3994 33.9384 39.3994 34.0212C39.3994 34.1971 39.5366 34.3372 39.7097 34.3372H56.9971C57.0287 34.3372 57.0676 34.3372 57.0993 34.3408L57.2369 34.3769C57.2758 34.391 57.3144 34.402 57.3533 34.4162L57.378 34.4271C57.4061 34.4413 57.4378 34.4522 57.484 34.4809C57.5048 34.4954 57.5226 34.506 57.5507 34.5276C57.5719 34.5457 57.5931 34.5637 57.6178 34.5885C57.6251 34.5924 57.6355 34.6101 57.6463 34.621C57.6637 34.6426 57.6814 34.6678 57.6988 34.6893C57.7589 34.7753 57.787 34.8723 57.7766 34.9767C57.7731 35.0662 57.7446 35.1525 57.6956 35.2354C57.6776 35.264 57.6637 35.2891 57.639 35.3178L57.6039 35.3535L57.5542 35.4041C57.5191 35.4328 57.4802 35.4615 57.4555 35.4792L57.4204 35.4972C57.3957 35.5117 57.3745 35.5227 57.3533 35.5333C57.3179 35.5514 57.2793 35.5655 57.2477 35.5761L57.1417 35.6122C57.11 35.6193 57.0781 35.6232 57.0395 35.6303L57.036 35.6264L56.9936 35.6338C56.9547 35.6409 56.9123 35.6444 56.8734 35.6444H40.0659C39.8932 35.6444 39.7521 35.7884 39.7521 35.9643C39.7521 36.1437 39.8894 36.2839 40.0659 36.2839L55.2757 36.2803C55.6493 36.3522 55.9103 36.6144 55.8999 36.9017C55.8791 37.2644 55.4592 37.5734 54.9831 37.5734L40.0166 37.5518C39.8366 37.5518 39.692 37.6954 39.692 37.8713C39.692 38.0511 39.8366 38.1947 40.0166 38.1947H51.6249C51.6388 38.1983 51.6569 38.2054 51.6847 38.216C51.7132 38.2199 51.7413 38.227 51.7942 38.2376C51.8084 38.2415 51.8261 38.2485 51.8717 38.2666L51.9422 38.2988C51.9669 38.3094 51.985 38.3204 52.0093 38.3345C52.034 38.349 52.0552 38.3635 52.0837 38.3887C52.101 38.4028 52.1188 38.4173 52.1365 38.435L52.1789 38.4747C52.1963 38.4962 52.2105 38.5178 52.2247 38.5394L52.2459 38.5752C52.2633 38.6077 52.281 38.6473 52.2915 38.6976C52.295 38.7082 52.2984 38.7224 52.2984 38.7404C52.3022 38.7585 52.3057 38.78 52.3057 38.8016V38.8303C52.295 39.1321 52.0128 39.3979 51.6496 39.4768H51.5825C51.5651 39.4768 51.5474 39.4804 51.5085 39.4839L39.2756 39.4517C39.0994 39.4517 38.9583 39.5954 38.9583 39.7751C38.9583 39.9184 39.0466 40.0444 39.1735 40.0837C39.2263 40.1127 39.2756 40.1233 39.325 40.1233H47.6919C47.7096 40.1339 47.7308 40.1378 47.7485 40.1378C48.1329 40.2097 48.3939 40.468 48.3835 40.7589C48.3692 40.9853 48.2 41.2009 47.9424 41.3229C47.7979 41.3767 47.6568 41.4057 47.5191 41.4057H40.401L37.8153 41.3948C37.6391 41.3948 37.4945 41.5384 37.4945 41.7179C37.4945 41.8725 37.6002 42.0017 37.7517 42.0339C37.7837 42.0448 37.8118 42.0448 37.84 42.0448L42.3482 42.0554C42.3868 42.0554 42.4326 42.0554 42.4646 42.0593L42.5032 42.07C42.8844 42.1312 43.1489 42.3895 43.1277 42.6913C43.1277 42.7165 43.1277 42.731 43.1239 42.7416C43.0499 43.0721 42.6408 43.3269 42.1998 43.3269H35.156V40.6333L35.2192 40.5975C36.9232 39.6456 37.9814 37.8427 37.9814 35.8996C37.9814 34.1865 37.2123 32.6203 35.8615 31.5898C35.7273 31.4748 35.6568 31.3237 35.6637 31.1549C35.6849 30.7887 36.094 30.4872 36.5774 30.4872H60.4856C60.7609 30.4872 61.0042 30.5806 61.1487 30.7419C61.1769 30.7745 61.2015 30.8067 61.2227 30.8318C61.2332 30.8534 61.2439 30.8711 61.2544 30.8892V30.9182L61.2721 30.9362C61.2756 30.9468 61.279 30.9575 61.2825 30.9684L61.3002 31.0544C61.3041 31.0725 61.3041 31.1011 61.3041 31.1298C61.3041 31.1408 61.3041 31.1478 61.2968 31.1659ZM37.9637 45.2809H35.156V43.9773L38.1962 43.9808L38.2528 43.9985C38.6268 44.0633 38.8913 44.322 38.8774 44.6164C38.8596 44.9826 38.4502 45.2809 37.9637 45.2809ZM35.156 31.7009C35.2231 31.8301 35.3145 31.9525 35.4344 32.0601L35.4875 32.1103C36.6691 33.0155 37.3461 34.3949 37.3461 35.8996C37.3461 37.5015 36.5068 39.0242 35.156 39.8862V31.7009ZM36.0658 52.8916L36.1221 53.0639L38.4503 60.0889L37.4382 60.4877L36.5986 59.1625V59.1589L36.3021 58.6883L35.6919 57.7258L35.5932 57.5644L35.1699 56.8998C35.1629 56.3467 35.1629 55.7505 35.156 55.1326V50.1477L36.0658 52.8916ZM34.5349 48.1756C34.5141 48.395 34.5141 48.7864 34.5141 49.5514C34.521 50.3848 34.521 51.48 34.528 52.5862V53.3728C34.5315 53.9978 34.5349 54.6011 34.5349 55.1326V56.6341H28.0023C28.0023 56.415 28.0023 56.0951 28.0058 55.7073C28.0058 55.4883 28.0096 55.2367 28.0096 54.9674C28.0096 54.7844 28.0131 54.5976 28.0131 54.4001C28.0166 54.2384 28.0166 54.0767 28.0166 53.9079C28.0166 53.7391 28.0201 53.5703 28.0201 53.398V53.2182C28.0201 53.0101 28.0235 52.7982 28.0235 52.5862C28.0235 51.48 28.0308 50.3848 28.0308 49.5514C28.0308 48.596 28.0308 48.2117 27.9884 48.0429V26.601C27.9884 26.4609 28.0166 26.3282 28.0764 26.2167L29.3039 23.7276C29.3358 23.6738 29.3744 23.6342 29.4241 23.6165C29.6674 23.8461 30.1928 24.0832 31.3428 24.0832C32.3587 24.0832 32.856 23.8316 33.0854 23.6165C33.1347 23.6342 33.1806 23.6738 33.2087 23.7276L34.447 26.2167C34.5068 26.3282 34.5349 26.4609 34.5349 26.601V48.1756ZM29.8471 5.52534C29.8471 5.44642 29.8613 5.36362 29.8929 5.29568L31.29 2.08114L32.6301 5.29568C32.6621 5.36362 32.676 5.439 32.676 5.51791V23.1242C32.6023 23.2141 32.3059 23.4544 31.3428 23.4544C30.2245 23.4544 29.9141 23.2035 29.8471 23.1352V5.52534ZM27.3674 39.9439C25.9637 39.0854 25.0959 37.5443 25.0959 35.8996C25.0959 34.3804 25.8153 32.9437 27.0254 32.0601L27.0817 32.0208V32.0099C27.202 31.8984 27.2969 31.7728 27.3674 31.6326V39.9439ZM27.3674 43.3269H19.2195C18.9442 43.3269 18.7044 43.2338 18.5564 43.0721C18.4646 42.9681 18.4188 42.8421 18.4292 42.7165C18.4539 42.3538 18.8772 42.0554 19.3675 42.0554H24.6796C24.8523 42.0554 25.0007 41.9047 25.0007 41.7217C25.0007 41.5491 24.8523 41.4057 24.6761 41.4057L14.5173 41.4273C14.2529 41.4273 14.0026 41.33 13.8473 41.1687C13.7451 41.0572 13.692 40.9241 13.6992 40.7875C13.7097 40.5076 13.9814 40.2419 14.3165 40.1594H23.2158C23.3923 40.1594 23.5334 40.0154 23.5334 39.8324C23.5334 39.6566 23.3923 39.5126 23.2158 39.5126L10.6128 39.4984C10.341 39.4984 10.0978 39.4014 9.9424 39.2291C9.84023 39.1247 9.79088 38.9956 9.80131 38.859C9.80861 38.7047 9.89653 38.543 10.0415 38.4244C10.1297 38.36 10.2246 38.3059 10.3306 38.2701C10.3765 38.2521 10.4258 38.2415 10.4821 38.2305C10.5457 38.216 10.6163 38.2089 10.6973 38.2089H22.528C22.708 38.2089 22.8526 38.0652 22.8526 37.8894C22.8526 37.71 22.708 37.5659 22.528 37.5659L7.40645 37.5734C7.13816 37.5734 6.89141 37.4764 6.73988 37.3111C6.63388 37.1926 6.58106 37.067 6.58801 36.941C6.60574 36.6324 6.91261 36.3557 7.28655 36.2839L22.4435 36.2768C22.6163 36.2768 22.7539 36.1367 22.7539 35.9643C22.7539 35.7846 22.6163 35.6444 22.4435 35.6444H5.78034C5.64272 35.6444 5.51205 35.6193 5.39562 35.5691C5.33237 35.5475 5.2792 35.5188 5.23714 35.4901C5.18745 35.4544 5.1454 35.4218 5.10995 35.3861C5.03592 35.3033 4.95148 35.1777 4.96885 35.023C4.96885 34.9696 4.97615 34.9335 4.99387 34.8723C4.99387 34.8687 4.997 34.8542 5.01472 34.822C5.03592 34.7863 5.05713 34.7431 5.0818 34.7145L5.10995 34.6823L5.13845 34.6532C5.17007 34.614 5.20552 34.5853 5.26182 34.5492C5.27225 34.5421 5.28302 34.5312 5.31465 34.5131C5.33932 34.4954 5.37095 34.4774 5.41682 34.4593C5.45227 34.4413 5.48772 34.4271 5.53707 34.4162C5.55097 34.4126 5.56522 34.4055 5.60414 34.3985C5.63542 34.3875 5.67087 34.3804 5.68859 34.3769L9.41694 34.3659L22.7959 34.3624C22.9582 34.3624 23.0993 34.2328 23.1136 34.0534L23.1171 34.0067C23.1171 33.8273 22.976 33.6836 22.7959 33.6836L9.54761 33.7194L8.51057 33.7233L3.57211 33.7158C3.37471 33.7158 3.18426 33.6656 3.03587 33.5686C3.00077 33.5471 2.96914 33.5184 2.93022 33.4752C2.84889 33.3853 2.79954 33.2848 2.79259 33.1628C2.78912 33.1521 2.78564 33.1341 2.78912 33.0909C2.78912 33.0729 2.7926 33.0516 2.79607 33.0336C2.79955 33.0191 2.80302 33.0014 2.81032 32.9724C2.81727 32.9508 2.82074 32.9402 2.82422 32.9292L2.84194 32.8935C2.85967 32.8613 2.87739 32.8252 2.90207 32.793C2.91944 32.7675 2.94065 32.7427 2.96914 32.7176C2.99347 32.6921 3.02197 32.6634 3.06089 32.6348C3.08522 32.6132 3.11719 32.5955 3.16307 32.57C3.19469 32.5488 3.22979 32.5307 3.26177 32.5198C3.30069 32.5056 3.34274 32.4876 3.39591 32.477C3.43449 32.466 3.47341 32.4554 3.52624 32.4483C3.54396 32.4409 3.56169 32.4409 3.59331 32.4409L3.63571 32.4338C3.65691 32.4338 3.67464 32.4302 3.69549 32.4302H23.7378C23.9143 32.4302 24.0519 32.2901 24.0519 32.1103C24.0519 31.9309 23.9143 31.7908 23.7378 31.7908H1.90395C1.63913 31.7908 1.38891 31.6938 1.23356 31.5286C1.20889 31.5035 1.18769 31.4748 1.16996 31.4422C1.14529 31.41 1.13486 31.3885 1.12061 31.3492C1.11366 31.3382 1.11018 31.3237 1.10671 31.3131L1.11018 31.3095L1.09246 31.2342C1.08551 31.2126 1.08551 31.1945 1.08551 31.1623C1.08551 31.1337 1.08898 31.1082 1.09593 31.0689C1.09941 31.0544 1.10289 31.0438 1.11366 31.0112C1.12061 30.9865 1.13486 30.9575 1.14876 30.9288L1.18073 30.8785C1.23008 30.7996 1.29716 30.7313 1.39933 30.6666C1.40976 30.656 1.42053 30.6489 1.44868 30.6344C1.47336 30.6199 1.49803 30.6057 1.53696 30.5838C1.56511 30.5696 1.60056 30.559 1.65686 30.5409C1.67111 30.5335 1.68153 30.5303 1.71315 30.5264C1.74513 30.5158 1.78023 30.5087 1.82263 30.5013C1.8685 30.4907 1.9248 30.4872 1.99883 30.4872H26.0412C26.3165 30.4872 26.5563 30.5806 26.7151 30.7458C26.8173 30.8534 26.8666 30.979 26.8597 31.1156C26.8527 31.2735 26.7749 31.4281 26.655 31.5396C25.2794 32.5414 24.4575 34.172 24.4575 35.8996C24.4575 37.8894 25.5508 39.7068 27.3076 40.6442L27.3674 40.6764V43.3269ZM27.3674 45.2809H24.4575C24.193 45.2809 23.9425 45.184 23.784 45.0223C23.6815 44.9147 23.6321 44.7852 23.6391 44.645C23.6533 44.34 23.9637 44.0633 24.3692 43.995C24.387 43.9915 24.4047 43.9844 24.4221 43.9773H27.3674V45.2809ZM27.3674 56.9214L26.9406 57.5931L26.8419 57.7509L25.6287 59.6618L25.318 60.1536V60.1572L25.1067 60.4877L24.0943 60.0889L26.4117 53.0961L26.468 52.9273L27.3674 50.2192V56.9214ZM61.7023 30.4079C61.6777 30.3722 61.646 30.3325 61.6179 30.3039C61.5932 30.2752 61.5647 30.2501 61.5366 30.2249L61.5084 30.1998C61.4556 30.1531 61.3885 30.1064 61.318 30.0668C61.0747 29.9196 60.789 29.8406 60.4856 29.8406H36.5774C35.9532 29.8406 35.3993 30.1818 35.156 30.663V26.601C35.156 26.3674 35.1066 26.1303 35.0006 25.9293L33.7662 23.4367C33.6675 23.2428 33.4979 23.092 33.304 23.0198V5.51791C33.304 5.35654 33.2689 5.19837 33.2087 5.04762L33.11 4.81406L33.036 4.63465L32.9196 4.36147L32.7469 3.94851L31.7873 1.6466C31.6991 1.44878 31.5051 1.31254 31.29 1.31254C31.0711 1.32316 30.8841 1.4417 30.7962 1.6466L29.6392 4.3006L29.4241 4.80345L29.3216 5.03311C29.2514 5.18775 29.2264 5.35654 29.2264 5.52534V23.0092C29.0182 23.092 28.8559 23.2428 28.7502 23.4367L27.5227 25.9293C27.4167 26.1303 27.3674 26.3674 27.3674 26.601V30.5877C27.3146 30.4872 27.251 30.3902 27.17 30.3039C26.9017 30.0094 26.4892 29.8406 26.0412 29.8406H1.99883C1.66728 29.8406 1.33956 29.9376 1.07474 30.1135C1.00419 30.1566 0.940935 30.2069 0.884287 30.2571C0.817213 30.318 0.750487 30.3902 0.690364 30.4691C0.549265 30.6666 0.468287 30.8892 0.454038 31.1192C0.443264 31.3849 0.528067 31.6542 0.697316 31.8807L0.771339 31.9667C0.806788 32.0063 0.849186 32.0424 0.884287 32.0746C0.94441 32.1249 1.01149 32.1716 1.07474 32.2112C1.31454 32.3545 1.60056 32.4302 1.90395 32.4302H2.3342C2.25635 32.5449 2.19657 32.6744 2.16112 32.8071C2.14722 32.8683 2.13645 32.9366 2.1295 32.9833C2.1222 33.0155 2.1222 33.0371 2.1222 33.0442C2.11873 33.098 2.1222 33.1486 2.12602 33.2059C2.1507 33.4607 2.25635 33.7017 2.43985 33.9027C2.51769 33.9816 2.60215 34.0534 2.67965 34.1037C2.94064 34.287 3.25829 34.3839 3.60026 34.3839L4.49968 34.3804C4.37283 34.5669 4.30576 34.7718 4.2988 34.9802C4.2849 35.2927 4.39751 35.5942 4.61611 35.8313C4.76798 35.993 4.96885 36.1186 5.19475 36.194C5.25835 36.2191 5.32195 36.2336 5.39215 36.2478C5.45922 36.2662 5.5263 36.2732 5.58294 36.2768C5.63925 36.2839 5.69207 36.2839 5.74871 36.2839H6.17167C6.04482 36.4742 5.97079 36.6862 5.95654 36.9017C5.94264 37.2106 6.05524 37.5121 6.27766 37.7567C6.54909 38.0472 6.96196 38.216 7.40645 38.216H9.37106C9.23691 38.4064 9.16289 38.6258 9.15246 38.8483C9.13474 39.1537 9.25116 39.4623 9.46976 39.6994C9.74848 39.9942 10.161 40.1594 10.5985 40.1594H13.2652C13.1488 40.3424 13.0782 40.5473 13.0678 40.7628C13.0535 41.0643 13.1665 41.3732 13.3851 41.6138C13.6638 41.9047 14.0767 42.07 14.5173 42.07H17.9989C17.8721 42.2568 17.7977 42.4723 17.7873 42.6843C17.7696 42.9928 17.8825 43.2947 18.1011 43.5353C18.3764 43.8333 18.7889 44.0021 19.2334 44.0021H23.2158C23.0889 44.1889 23.0184 44.3973 23.0076 44.6164C22.9937 44.9363 23.1063 45.2378 23.3252 45.4678C23.6074 45.7622 24.02 45.931 24.4575 45.931H27.3674V48.2297L25.8577 52.7801L25.8014 52.9489L25.7482 53.1142L23.4097 60.1717C23.3534 60.3299 23.4309 60.5057 23.5862 60.5705L24.8137 61.0588L24.9972 61.1271L25.1136 61.1703C25.1314 61.1774 25.1526 61.1845 25.1699 61.1919C25.1946 61.1954 25.2158 61.199 25.2301 61.199C25.3357 61.199 25.4309 61.1452 25.4911 61.0553L27.5154 57.8588L27.6145 57.6971L27.7201 57.5318L27.8859 57.2696H34.6618L34.8102 57.5067L34.9158 57.6684L35.0184 57.8337L36.8102 60.6745L37.0535 61.0553C37.0851 61.102 37.1275 61.1413 37.1769 61.1632C37.2228 61.188 37.2686 61.199 37.311 61.199C37.3569 61.199 37.392 61.188 37.4309 61.1703L37.4803 61.1523L38.9545 60.5705C39.1133 60.5057 39.1912 60.3299 39.138 60.1717L36.7856 53.0781L36.7324 52.9093L36.6761 52.7408L35.156 48.154V45.931H37.9637C38.7818 45.931 39.4734 45.3528 39.5085 44.645C39.5189 44.4189 39.4626 44.1963 39.3427 44.0021H42.2175C42.9619 44.0021 43.6177 43.5212 43.738 42.8923C43.7519 42.8495 43.7592 42.8134 43.7661 42.7738L43.7766 42.7129C43.7873 42.4868 43.7342 42.271 43.6177 42.07H47.4663C47.7131 42.07 47.9602 42.0162 48.1715 41.9121C48.6903 41.7072 49.0431 41.2582 49.0712 40.7663C49.0747 40.5473 49.0219 40.3353 48.9124 40.1449H51.4345C51.505 40.1414 51.5756 40.1378 51.6284 40.1233C51.6777 40.1198 51.7271 40.1088 51.773 40.0982C52.4892 40.0012 53.0286 39.4768 53.0606 38.8519C53.071 38.6258 53.0112 38.4028 52.8983 38.216H54.9831C55.8012 38.216 56.4928 37.6417 56.5279 36.9378C56.5387 36.7039 56.4786 36.4813 56.3621 36.2839H56.9724C57.0395 36.2803 57.1031 36.2768 57.1594 36.2662C57.8753 36.1618 58.415 35.6338 58.4432 35.0053C58.4574 34.7828 58.3973 34.5563 58.2847 34.3624H58.9725C59.4062 34.3624 59.8191 34.2042 60.1013 33.9314C60.3268 33.741 60.4822 33.4862 60.535 33.2204C60.5492 33.1628 60.5527 33.1125 60.5562 33.0552V33.0155C60.5562 32.9508 60.5527 32.8899 60.5454 32.8181C60.5207 32.685 60.4714 32.552 60.4043 32.4302C60.7359 32.4267 61.0604 32.3297 61.318 32.161C61.3885 32.1174 61.4521 32.0672 61.5084 32.0099C61.579 31.9486 61.6391 31.8807 61.7023 31.7979C61.8434 31.6004 61.9213 31.3778 61.9317 31.1549C61.946 30.8856 61.8612 30.6199 61.7023 30.4079Z" fill="black"/>
<path d="M61.2961 31.1656L61.2783 31.2339L61.2818 31.241C61.2818 31.2481 61.2783 31.2555 61.2749 31.2661C61.2714 31.2732 61.2679 31.2913 61.2537 31.3164C61.2398 31.3525 61.2186 31.3882 61.1831 31.4279C61.1762 31.4385 61.1623 31.4601 61.1338 31.4891C61.1021 31.5284 61.0597 31.5641 60.9965 31.6076C60.9753 31.6218 60.9576 31.6363 60.9364 31.6469C60.894 31.672 60.8481 31.6936 60.7883 31.7187C60.7636 31.7294 60.7386 31.7368 60.6966 31.7474L60.6156 31.7654C60.5767 31.7764 60.5343 31.7796 60.5023 31.7835L60.3897 31.7906L38.7672 31.7368C38.5945 31.7368 38.4568 31.8769 38.4568 32.0563C38.4568 32.2396 38.5945 32.3868 38.7672 32.3868H59.1518C59.1904 32.4084 59.2255 32.4226 59.2679 32.43L59.3349 32.4481C59.3561 32.4551 59.3808 32.4587 59.4055 32.4693C59.4514 32.4838 59.4938 32.5015 59.5431 32.527C59.5678 32.5376 59.589 32.5517 59.6171 32.5698C59.6561 32.5953 59.6912 32.6239 59.7193 32.6526C59.7721 32.7064 59.8145 32.7641 59.843 32.8214C59.8747 32.8897 59.8889 32.9506 59.8889 33.0153V33.044C59.8851 33.0836 59.8781 33.1229 59.8712 33.1554C59.8396 33.263 59.776 33.3709 59.6912 33.4499C59.5184 33.5971 59.2713 33.6834 59.0103 33.6834H39.716C39.6242 33.6834 39.5359 33.7266 39.4727 33.8055C39.4195 33.8703 39.3987 33.9382 39.3987 34.021C39.3987 34.1969 39.5359 34.337 39.709 34.337H56.9964C57.028 34.337 57.0669 34.337 57.0986 34.3405L57.2362 34.3766C57.2751 34.3908 57.3137 34.4018 57.3526 34.4159L57.3773 34.4269C57.4054 34.441 57.4371 34.452 57.4833 34.4807C57.5041 34.4952 57.5219 34.5058 57.55 34.5274C57.5712 34.5454 57.5924 34.5635 57.6171 34.5883C57.6244 34.5921 57.6348 34.6098 57.6456 34.6208C57.663 34.6424 57.6807 34.6675 57.6981 34.6891C57.7582 34.7751 57.7863 34.8721 57.7759 34.9764C57.7724 35.066 57.7439 35.1523 57.6949 35.2351C57.6769 35.2638 57.6629 35.2889 57.6383 35.3176L57.6032 35.3533L57.5535 35.4039C57.5184 35.4326 57.4795 35.4612 57.4548 35.4789L57.4197 35.497C57.395 35.5115 57.3738 35.5225 57.3526 35.5331C57.3172 35.5511 57.2786 35.5653 57.247 35.5759L57.141 35.612C57.1093 35.6191 57.0774 35.623 57.0388 35.63L57.0353 35.6261L56.9929 35.6336C56.954 35.6407 56.9116 35.6442 56.8727 35.6442H40.0652C39.8925 35.6442 39.7514 35.7882 39.7514 35.9641C39.7514 36.1435 39.8887 36.2836 40.0652 36.2836L55.275 36.2801C55.6486 36.3519 55.9096 36.6141 55.8992 36.9015C55.8784 37.2642 55.4585 37.5731 54.9824 37.5731L40.0159 37.5515C39.8359 37.5515 39.6913 37.6952 39.6913 37.8711C39.6913 38.0508 39.8359 38.1945 40.0159 38.1945H51.6242C51.6381 38.1981 51.6562 38.2051 51.684 38.2157C51.7125 38.2196 51.7406 38.2267 51.7935 38.2373C51.8077 38.2412 51.8254 38.2483 51.871 38.2664L51.9415 38.2986C51.9662 38.3092 51.9842 38.3201 52.0086 38.3343C52.0333 38.3488 52.0544 38.3633 52.0829 38.3884C52.1003 38.4026 52.118 38.4171 52.1358 38.4348L52.1782 38.4744C52.1955 38.496 52.2098 38.5176 52.224 38.5392L52.2452 38.5749C52.2626 38.6075 52.2803 38.6471 52.2908 38.6974C52.2942 38.708 52.2977 38.7221 52.2977 38.7402C52.3015 38.7582 52.305 38.7798 52.305 38.8014V38.8301C52.2942 39.1319 52.012 39.3977 51.6489 39.4766H51.5818C51.5644 39.4766 51.5467 39.4801 51.5078 39.4837L39.2749 39.4515C39.0987 39.4515 38.9576 39.5951 38.9576 39.7749C38.9576 39.9182 39.0459 40.0442 39.1728 40.0835C39.2256 40.1125 39.2749 40.1231 39.3243 40.1231H47.6912C47.7089 40.1337 47.7301 40.1376 47.7478 40.1376C48.1322 40.2094 48.3932 40.4678 48.3828 40.7586C48.3685 40.9851 48.1993 41.2006 47.9417 41.3227C47.7972 41.3765 47.6561 41.4055 47.5184 41.4055H40.4003L37.8146 41.3945C37.6384 41.3945 37.4938 41.5382 37.4938 41.7176C37.4938 41.8723 37.5995 42.0014 37.751 42.0336C37.783 42.0446 37.8111 42.0446 37.8393 42.0446L42.3475 42.0552C42.3861 42.0552 42.4319 42.0552 42.4639 42.0591L42.5025 42.0697C42.8837 42.1309 43.1482 42.3893 43.127 42.6911C43.127 42.7162 43.127 42.7307 43.1232 42.7414C43.0492 43.0719 42.6401 43.3267 42.1991 43.3267H35.1553V40.633L35.2185 40.5973C36.9225 39.6454 37.9807 37.8424 37.9807 35.8993C37.9807 34.1863 37.2116 32.62 35.8608 31.5896C35.7266 31.4746 35.6561 31.3235 35.663 31.1547C35.6842 30.7884 36.0933 30.4869 36.5767 30.4869H60.4849C60.7602 30.4869 61.0034 30.5803 61.148 30.7417C61.1762 30.7743 61.2008 30.8065 61.222 30.8316C61.2325 30.8532 61.2432 30.8709 61.2537 30.8889V30.9179L61.2714 30.936C61.2749 30.9466 61.2783 30.9572 61.2818 30.9682L61.2995 31.0542C61.3034 31.0722 61.3034 31.1009 61.3034 31.1295C61.3034 31.1405 61.3034 31.1476 61.2961 31.1656Z" fill="white"/>
<path d="M38.8767 44.6163C38.8589 44.9826 38.4495 45.2805 37.963 45.2805H35.1553V43.9769L38.1958 43.9808L38.2521 43.9985C38.6261 44.0632 38.8906 44.3215 38.8767 44.6163Z" fill="white"/>
<path d="M27.3667 43.9769V45.2805H24.4568C24.1924 45.2805 23.9418 45.1836 23.783 45.0222C23.6808 44.9143 23.6311 44.7851 23.6384 44.645C23.6523 44.3396 23.963 44.0632 24.3686 43.9949C24.3863 43.9914 24.404 43.9839 24.4214 43.9769H27.3667Z" fill="white"/>
<path d="M27.3672 40.6764V43.3269H19.2193C18.944 43.3269 18.7042 43.2338 18.5558 43.0721C18.4644 42.9681 18.4185 42.8421 18.429 42.7165C18.4536 42.3538 18.8769 42.0555 19.3673 42.0555H24.6794C24.8521 42.0555 25.0005 41.9047 25.0005 41.7218C25.0005 41.5491 24.8521 41.4058 24.6759 41.4058L14.5171 41.4273C14.2527 41.4273 14.0021 41.33 13.8471 41.1687C13.7449 41.0572 13.6917 40.9241 13.6987 40.7875C13.7095 40.5076 13.9809 40.2419 14.3163 40.1594H23.2156C23.3921 40.1594 23.5332 40.0154 23.5332 39.8325C23.5332 39.6566 23.3921 39.5126 23.2156 39.5126L10.6126 39.4984C10.3408 39.4984 10.0976 39.4015 9.9422 39.2291C9.84003 39.1247 9.79068 38.9956 9.8011 38.859C9.8084 38.7047 9.89633 38.543 10.0412 38.4244C10.1292 38.36 10.2244 38.3059 10.3304 38.2701C10.3763 38.2521 10.4253 38.2415 10.4819 38.2305C10.5455 38.216 10.6161 38.2089 10.697 38.2089H22.5278C22.7078 38.2089 22.8524 38.0652 22.8524 37.8894C22.8524 37.71 22.7078 37.5659 22.5278 37.5659L7.4059 37.5734C7.13795 37.5734 6.8912 37.4764 6.73968 37.3112C6.63368 37.1926 6.58086 37.067 6.58781 36.941C6.60553 36.6324 6.91241 36.3557 7.28635 36.2839L22.4433 36.2768C22.6161 36.2768 22.7537 36.1367 22.7537 35.9643C22.7537 35.7846 22.6161 35.6444 22.4433 35.6444H5.78014C5.64252 35.6444 5.51184 35.6193 5.39542 35.5691C5.33217 35.5475 5.279 35.5188 5.23694 35.4902C5.18725 35.4544 5.1452 35.4219 5.10975 35.3861C5.03572 35.3033 4.95127 35.1777 4.96865 35.023C4.96865 34.9696 4.97595 34.9335 4.99367 34.8723C4.99367 34.8688 4.9968 34.8542 5.01452 34.822C5.03572 34.7863 5.05692 34.7431 5.0816 34.7145L5.10975 34.6823L5.13824 34.6533C5.16987 34.614 5.20497 34.5853 5.26162 34.5492C5.27205 34.5421 5.28282 34.5312 5.31444 34.5131C5.33912 34.4954 5.37075 34.4774 5.41662 34.4593C5.45172 34.4413 5.48717 34.4271 5.53687 34.4162C5.55077 34.4126 5.56502 34.4055 5.60359 34.3985C5.63522 34.3875 5.67067 34.3804 5.68839 34.3769L9.41673 34.3659L22.7957 34.3624C22.958 34.3624 23.0991 34.2332 23.1134 34.0534L23.1169 34.0067C23.1169 33.8273 22.9758 33.6837 22.7957 33.6837L9.5474 33.7194L8.51036 33.7233L3.57191 33.7159C3.37451 33.7159 3.18406 33.6656 3.03567 33.5686C3.00057 33.5471 2.96859 33.5184 2.93002 33.4752C2.84869 33.3853 2.79934 33.2848 2.79239 33.1628C2.78892 33.1521 2.78544 33.1341 2.78892 33.0909C2.78892 33.0729 2.79239 33.0516 2.79587 33.0336C2.79934 33.0191 2.80282 33.0014 2.81012 32.9724C2.81707 32.9508 2.82054 32.9402 2.82402 32.9292L2.84174 32.8935C2.85947 32.8613 2.87719 32.8252 2.90187 32.793C2.91924 32.7675 2.94044 32.7427 2.96859 32.7176C2.99327 32.6925 3.02176 32.6635 3.06069 32.6348C3.08502 32.6132 3.11699 32.5955 3.16286 32.57C3.19449 32.5488 3.22959 32.5308 3.26156 32.5198C3.30049 32.5056 3.34254 32.4876 3.39537 32.477C3.43429 32.466 3.47321 32.4554 3.52604 32.4483C3.54376 32.4409 3.56114 32.4409 3.59311 32.4409L3.63551 32.4338C3.65671 32.4338 3.67443 32.4303 3.69529 32.4303H23.7375C23.9137 32.4303 24.0514 32.2901 24.0514 32.1104C24.0514 31.9309 23.9137 31.7908 23.7375 31.7908H1.9034C1.63893 31.7908 1.38871 31.6939 1.23336 31.5286C1.20868 31.5035 1.18748 31.4748 1.16976 31.4423C1.14509 31.4101 1.13466 31.3885 1.12041 31.3492C1.11346 31.3382 1.10998 31.3237 1.10651 31.3131L1.10998 31.3096L1.09226 31.2342C1.08496 31.2126 1.08496 31.1946 1.08496 31.1623C1.08496 31.1337 1.08878 31.1082 1.09573 31.0689C1.09921 31.0544 1.10269 31.0438 1.11346 31.0116C1.12041 30.9865 1.13466 30.9575 1.14856 30.9288L1.18019 30.8785C1.22988 30.7996 1.29696 30.7313 1.39913 30.6666C1.40956 30.656 1.42033 30.6489 1.44848 30.6344C1.47316 30.6199 1.49783 30.6057 1.53676 30.5838C1.56491 30.5696 1.6 30.559 1.65665 30.541C1.6709 30.5335 1.68133 30.5303 1.71295 30.5264C1.74458 30.5158 1.78003 30.5088 1.82243 30.5013C1.8683 30.4907 1.9246 30.4872 1.99863 30.4872H26.041C26.3162 30.4872 26.556 30.5806 26.7149 30.7458C26.817 30.8534 26.8664 30.979 26.8594 31.1156C26.8525 31.2735 26.7746 31.4281 26.6547 31.5396C25.2792 32.5414 24.4573 34.172 24.4573 35.8996C24.4573 37.8894 25.5506 39.7068 27.3074 40.6442L27.3672 40.6764Z" fill="white"/>
<path d="M38.4495 60.089L37.4372 60.4878L36.5975 59.1626V59.159L36.3014 58.6884L35.6912 57.7259L35.5925 57.5641L35.1692 56.8996C35.1622 56.3465 35.1622 55.7506 35.1553 55.1327V50.1474L36.0651 52.8917L36.1214 53.0636L38.4495 60.089Z" fill="white"/>
<path d="M27.3668 50.2193V56.9212L26.9401 57.5928L26.8414 57.751L25.6281 59.6619L25.3174 60.1537V60.1573L25.1061 60.4878L24.0938 60.089L26.4111 53.0962L26.4674 52.9274L27.3668 50.2193Z" fill="white"/>
<path d="M34.5348 48.1754C34.5136 48.3944 34.5136 48.7862 34.5136 49.5509C34.5205 50.3842 34.5205 51.4798 34.5278 52.586V53.3727C34.5313 53.9976 34.5348 54.6009 34.5348 55.1324V56.6335H28.0022C28.0022 56.4145 28.0022 56.095 28.0057 55.7071C28.0057 55.4881 28.0095 55.2365 28.0095 54.9672C28.0095 54.7839 28.0126 54.597 28.0126 54.3996C28.0164 54.2379 28.0164 54.0765 28.0164 53.9077C28.0164 53.7389 28.0199 53.5701 28.0199 53.3974V53.218C28.0199 53.0099 28.0234 52.798 28.0234 52.586C28.0234 51.4798 28.0307 50.3842 28.0307 49.5509C28.0307 48.5954 28.0307 48.2115 27.9883 48.0427V26.6004C27.9883 26.4607 28.0164 26.3276 28.0762 26.2161L29.3037 23.7274C29.3357 23.6736 29.3742 23.634 29.4236 23.6159C29.6672 23.8459 30.1927 24.083 31.3427 24.083C32.3585 24.083 32.8558 23.8314 33.0852 23.6159C33.1346 23.634 33.1804 23.6736 33.2086 23.7274L34.4468 26.2161C34.5066 26.3276 34.5348 26.4607 34.5348 26.6004V48.1754Z" fill="white"/>
<path d="M32.6756 5.5181V23.1241C32.6016 23.214 32.3051 23.4546 31.3425 23.4546C30.2241 23.4546 29.9138 23.2033 29.8467 23.135V5.52553C29.8467 5.44626 29.8609 5.36381 29.8926 5.29552L31.2893 2.08098L32.6297 5.29552C32.6614 5.36381 32.6756 5.43919 32.6756 5.5181Z" fill="white"/>
</svg>
