<?xml version="1.0" encoding="utf-8"?>
<!-- Generator: Adobe Illustrator 27.7.0, SVG Export Plug-In . SVG Version: 6.00 Build 0)  -->
<svg version="1.1" id="Layer_1" xmlns="http://www.w3.org/2000/svg" xmlns:xlink="http://www.w3.org/1999/xlink" x="0px" y="0px"
	 viewBox="0 0 1080 1080" style="enable-background:new 0 0 1080 1080;" xml:space="preserve">
<style type="text/css">
	.st0{fill:#FEFEFF;}
	.st1{fill:#95BBBA;}
	.st2{fill:#6B6C70;}
	.st3{fill:#DF6D46;}
	.st4{fill:#3AB54A;}
	.st5{opacity:0.45;}
</style>
<g>
	<path class="st0" d="M958.59,763.08c-290.83,0-581.67,0-872.56,0c0-154.85,0-309.71,0-464.64c290.82,0,581.69,0,872.56,0
		C958.59,453.29,958.59,608.18,958.59,763.08z M904.3,634.87c-1.02,2.67-0.02,4.77,1.91,6.59c1.62,16.42,6.72,32.89,10.68,49.1
		c0.19,3.41,2.56,6.26,1.92,9.84c-0.07,1.56,0.6,2.47,2.19,2.65c0.14,2.96,1.15,6.06-3.13,5.27c-16.48-0.25-33.1,0.52-49.5-0.26
		c-0.97-4.88-1.94-9.77-2.02-14.8c0.29-2.65-6.19-3.13-7.06-0.89c-0.2,5.2,2.13,10.67,0.35,15.77c-17.61,0.45-35.29,0-52.92,0.14
		c-3.35-4.36,1.8-16.33-3.97-17.34c-9.68-1.97-2.66,11.96-4.54,17.23c-17.2,0.38-34.43,0.04-51.64,0.16
		c-1.04-0.03-2.49,0.22-2.73-1.12c-0.45-3.51,2.45-16.56-2.77-15.75c-1.63,0.04-4.96-0.82-5.29,1.36c-1.21,6.24,2.83,9.4-0.28,15.32
		c-17.37,0.48-34.87-0.02-52.29,0.13c-2.45-3.74,2.32-17.89-3.6-16.86c-2.24,0.17-5.74-0.91-5.37,2.35c-0.06,4.66,0,9.32,0.01,13.98
		c-17.1,1.53-35.13,0.2-52.53,0.49c-0.66-0.87-0.99-2.02-2.09-2.53c-1.44-4.36,3.21-15.97-4.52-14.2c-2.22,0.33-2.22,0.33-2.32,2.48
		c0.26,4.95-0.3,9.67-1.92,14.27c-16.06,0.03-32.13,0.06-48.19,0.08c-4.43,0.01-4.38,0-4.45-4.38c-0.06-3.9,0.29-7.81-0.26-11.71
		c0.79-0.96-0.87-1.78-1.28-0.67c-10.11-2.31-2.38,11.25-7.27,16.69c-14.87,0.04-29.74,0.07-44.61,0.11
		c-2.33-0.95-3.17-2.7-3.08-5.18c-0.54-2.44,1.67-12.05-1.79-11.58c-1.17-0.31-2.36-0.32-3.55-0.15c-5.08,1.7,1.53,13.93-4.18,16.83
		c-17.24-0.51-35.09,1.04-52.02-0.52c-0.6-5.2,1.44-11.55-0.86-16.19c-2.89-2.07-6.88-0.45-7.23,3.07
		c-0.76,4.52,0.88,9.27-0.81,13.57c-17.27,0.16-34.54-0.01-51.81,0.02c-3.57-4.85,2.83-17.31-5.16-17.41
		c-7.8,0.24-1.5,12.67-4.54,17.32c-16.85,0.38-33.72,0.08-50.58,0.21c-3.09-1.08-3.13-4.07-3-6.89c0.3-2.99-0.44-5.87-0.31-8.87
		c0.64-0.9-0.05-1.33-0.69-1.58c-10.81-2.92-2.93,12.72-8.59,17.27c-16.34,0.01-32.68,0.01-49.02,0.02
		c-1.44,0.08-3.16,0.17-3.15-1.69c-0.43-3.8,2.17-12.18-0.17-14.66c-9.29-3.73-5.1,7.98-6.1,13.34c-0.83,0.51-0.91,1.09-0.17,1.76
		c-0.53,1.61-1.96,1.19-3.05,1.2c-17.21-0.96-35.94,2.05-52.45-1.08c0.37-0.85-0.03-1.27-0.83-1.46c0.03-1.5,0.05-3,0.08-4.5
		c1.94-0.53,2.71-10.43,0.24-9.63c-3.94-0.53-4.93-0.83-4.74,3.46c-0.8,0.5-0.87,1.09-0.22,1.76c-0.04,0.34-0.08,0.69-0.12,1.03
		c-0.96,0.36-0.98,1.18-0.93,1.98c0.4,2.74-1.29,5.24-1.05,7.88c-12.91,1.61-26.63,0.17-39.8,0.73c-2.14-0.09-5.21-0.92-6.47,0.91
		c-1.56,5.51,2.7,10.72,8.51,10.36c14.06,0.02,28.12,0.01,42.18,0.01c3.99-0.77,7.71-1.59,11.8-1.14c2.35-0.08,4.29,1.69,6.68,1.15
		c18.55,0.51,37.61-0.62,55.78-0.37c17.41,0.27,35.38,1.86,52.68-0.79c4.73-0.19,9.27-0.18,13.86,1.15
		c16.43-0.55,32.93,1.48,49.24-1.05c3.05-0.44,6.8-0.55,9.83,0.34c0.94,0.77,2.05,0.71,3.15,0.71c15.97-0.73,32.74,1.61,48.25-1.16
		c3.1,0.24,6.63-0.5,9.57,0.31c1.17,1.14,2.62,0.84,3.99,0.85c15.41-0.84,31.37,1.92,46.44-1.14c5.24-0.12,10.29-0.41,15.41,1.14
		c14.27-0.66,28.78,1.72,42.83-1.15c19.17,1.02,39.1,1.88,58.44,0.87c3.69-1.89,8.14-0.51,12.15-0.89c2.31-0.3,4.03,1.69,6.37,1.18
		c18.26,0.16,36.61,0.18,54.58-1.17c15.88,2.63,32.66,0.55,48.9,1.17c0.7,0,1.53,0.19,2.08-0.11c4-1.79,8.6-1.18,12.66-0.75
		c15.85,2.36,32.73,0.11,48.92,0.88c3.43,0.37,6.67-2.58,9.89-0.37c16.75,0.98,33.96,0.03,50.85,0.35
		c6.01-1.64,11.86-1.33,17.92,0.02c69.34,0.66,51.5,5.48,35.75-71.44c-13.22-54.34-24.88-109.28-38.9-163.41
		c-2.12-12.99-6.78-25.94-8.68-39.06c-3.67-12.15-6.05-24.89-9.38-37.41c-3.45-11.8-2.55-27.61-15.38-33.59
		c-6.17-0.67,2.95,21.94,3.06,25.89c3.39,13.75,6.85,27.68,9.79,41.4c-0.11,1.76,0.4,3.16,2.09,3.95c0.39,3.12-0.74,6.74,1.89,9
		c0.75,2.89-0.86,6.3,2.1,8.2c0.61,2.14-0.74,4.46,0.29,6.43c1.32,3.84,1.89,7.93,3.3,11.68c0.75,8.42,3.46,16.56,5.41,24.62
		c1.6,4.48,1.75,9.31,3.56,13.76c0.62,1.24-0.29,3.47,0.46,4.7c3.38,3.08,0.15,8.52,3.94,11.05c0.37,2.63-0.88,5.29,1.16,7.61
		c0.59,0.77,0.46,1.68,0.64,2.54c0.44,2.16,0.21,4.61,2.37,6.11c0.72,3.24-1.13,7.13,2.15,9.22c0.05,0.75,0.09,1.49,0.14,2.24
		c-1.51,2.57,1.08,5.89,2,8.4c0.07,11.14,5.48,21.79,6.16,32.91c-0.01,1.02,0.05,2.09,0.84,2.79c1.94,2.27,0.41,5.79,2.23,8.19
		c2.05,2.92-0.14,7.14,3.53,9.05c0.33,3.08-1.31,5.61,2,6.24C904.16,632.18,904.23,633.52,904.3,634.87z M832.76,483.7
		c-0.05-0.39-0.1-0.77-0.15-1.16c0.76-0.49,0.62-0.86-0.15-1.14c-0.57-2.99,0.52-6.19-1.97-8.62c-0.42-1.95,0.92-4.22-2.13-3.92
		c-77.96-0.65-156.75,0.06-234.99-0.18c-4.45-1.52-6-0.48-6,4.03c7.85,59.71,5.69,130.21,2.83,198.21
		c91.36,0.19,182.76,0,274.12,0.06c3.7,0.52,8.63-1.47,7.13-6.01c-1.32-3.41-0.23-7.62-3.04-10.37c-0.08-0.77-0.15-1.53-0.23-2.3
		c0.6-7.86-3.59-16.51-4.32-24.68c-5.04-21.62-9.02-43.97-14.05-65.88C843.7,536.1,840.27,508.36,832.76,483.7z M188.34,641.95
		c110.78-7.47,229.61,5.01,338.16-4.28c0.15-65.5-0.17-131.04,0.11-196.54c0.68-4.7,0.55-4.88-4.02-4.88
		c-96.81,2.61-199.87-5.01-293.71,2.65C215.89,506.79,200.77,575.02,188.34,641.95z M836.92,370.94c-1.25-1.52-2.45-1.59-3.62-1.52
		c-4.68-0.33-9.56-1.53-13.42-4.16c-2.61-1.21-5.35-2.16-7.31-4.44c-0.45-0.52-1.11-0.56-1.67-0.34c-1.51,0.6-2.75,0-3.93-0.78
		c-3.69-2.46-7.69-3.04-12.13-3.04c-181.58,1.14-363.94-1.93-545.14,1.14c-2.11,1.1-4.1,2.63-6.47,3.01
		c-7.44,1.73-12.83,7.62-20.52,8.47C404.71,375.84,638.04,370.7,836.92,370.94z"/>
	<path class="st1" d="M188.34,641.95c12.44-66.93,27.55-135.15,40.54-203.04c93.87-7.67,196.87-0.05,293.71-2.66
		c4.57,0.01,4.7,0.18,4.02,4.88c-0.28,65.49,0.04,131.03-0.11,196.53C417.92,646.95,299.14,634.48,188.34,641.95z"/>
	<path class="st2" d="M832.61,482.54c3.57,28.29,11.02,56.31,16.53,84.4c6.74,28.25,10.58,57.77,19.04,85.35
		c-1.29,5.49,4.15,13.97,0.2,16.66c-90.67,2.56-182.46,0.02-273.5,0.88c-3.29,0.36-7.24,0-6.31-4.42
		c-0.01-64.27,0.01-128.55-0.01-192.82c-0.05-3.99,2.58-2.43,4.8-3.92c78.24,0.25,157.03-0.46,234.99,0.18
		c0.26,1.1,1.15,1.65,1.98,2.24c0.31,3-0.36,6.13,1.88,8.61c0.08,0.56,0.16,1.12,0.24,1.68
		C831.86,481.86,831.97,482.23,832.61,482.54z M638.37,520.62c0.35-0.85,0.11-1.56-0.73-1.85c-1.66-0.66-2.26,1.45-3.36,2.3
		c-1.81,2.79-6.58,5.59-5.78,9.14c0.81,1.81,3.08,0.92,4.62,1.08c2.77-0.9,3.31,5.75,5.41,2.41
		C643.46,526.35,637.84,531.81,638.37,520.62z M712.28,596.28c-1.55-5.12-8.68-5.7-11.13-1.06c-4.5,7.63,5.38,20.47,11.33,10.11
		C714.6,602.82,714.51,598.65,712.28,596.28z M704.65,572.33c11.85-2.02,2.08-7.76,4.47-10.97c2.65-3.05-3.5-6.63-6.05-6.57
		c-8.99,3.82-1.64,5.74-4.26,10.54C696.55,569.05,701.27,572.41,704.65,572.33z M779.67,565.02c1.87-11.59-16.71-13.96-12.07-1.51
		c1.72,2.1,3.65,4.09,6.84,3.2c0.48-0.13,1.02-0.37,1.34,0.17c1.23,3.26-3.26,3.41-4.98,1.66c-0.4-0.35-0.88-0.51-1.28,0.03
		C767.82,575.15,782.03,572.73,779.67,565.02z M762.25,526.55c-1.24,6.32,7.77,13.19,12.18,5.85c3.28-4.64-2.99-10.36-7.73-8.48
		c-1.12,0.61-1.78-0.93-1.3-1.82c1.25-2.16,4.18-1.66,5.47,0.2c1.75,1.79,3.7-1.07,2.02-2.51
		C768.25,516.17,760.51,520.21,762.25,526.55z M699.87,527.06c0-0.02,0-0.04,0-0.07c3.01-0.85,6.52,2.11,3.73,4.72
		c-1.86,2.78-6.77-4.22-6.48,0.89c3.18,5.9,14.5,0.84,10.58-5.53c-1.48-2.23-3.56-3.42-6.19-3.62c-2.51,0.02-2.34-2.87,0.15-2.42
		c9.35-0.24,0.56-4.13-3.38-2.07c-1.75,0.61-1.46,2.69-2.11,4.1C695.13,526.07,696.82,527.64,699.87,527.06z M761.91,481.26
		c-1.31,0.15-5.4,2.77-3.14,4.62c1.68,1.35,3.66-3.46,5.7-0.78c0.38,0.67,0.25,1.3-0.14,1.97c-3.28,4.61,5.39,3.63,1.82,8.31
		c-2.2,1.59-3.71-0.99-5.69-1.45c-4.54,1.21,5.16,6.65,8.35,3.05c4.51-2.78-1.9-6.17-0.28-9.72
		C769.89,484.24,765.06,481.38,761.91,481.26z M634.07,554.92c-1.81-0.37-4.67,0.3-4.32,2.78c0.78,2.93,9.89-0.89,5.15,4.49
		c-2.64,1.39-5.08,13.34-0.08,8.14C636.48,563.87,647.96,554.1,634.07,554.92z M699.25,497.74c0-0.04,0-0.07,0-0.11
		c1.4,0,2.8,0.05,4.2-0.02c2.43-1.31-0.73-2.12-2.11-1.91c-0.75-0.08-1.76,0.38-2.18-0.53c-0.49-1.07,0.59-1.57,1.16-2.2
		c11.33-7.66-4.37-17.92-6.88-7.33c0.96,3.34,3.87-1.78,5.65-1.59C708.72,487.69,683.86,498.53,699.25,497.74z M638.4,494.27
		c-1.29-4.93,0.9-17.47-6.98-9.06c-2.64,3.14,3.88,0.95,2.92,4.53c0.56,2.41-1.56,7.66,1.49,8.35
		C638.19,498.46,637.96,495.9,638.4,494.27z"/>
	<path class="st1" d="M836.92,370.94c-198.68-0.24-432.42,4.9-614.21-1.65c7.71-0.86,13.07-6.74,20.52-8.48
		c2.37-0.38,4.36-1.91,6.47-3.01c181.2-3.07,363.56,0,545.14-1.14c4.44,0,8.44,0.58,12.13,3.04c1.18,0.78,2.42,1.38,3.93,0.78
		c0.56-0.22,1.22-0.18,1.67,0.34c1.96,2.28,4.7,3.23,7.31,4.44c3.95,2.63,8.66,3.83,13.42,4.16
		C834.48,369.35,835.68,369.42,836.92,370.94z"/>
	<path class="st2" d="M902.2,626.31c-0.04-0.58-0.07-1.15-0.11-1.73c0.85-4.41-2-9.56-2.75-14.1c-1.36-6.7-2.84-13.49-4.15-19.93
		c-2.2-2.15-0.25-5.81-2.21-8.15c-2.38-2.99,0.22-7.54-3.55-9.62c-0.03-0.38-0.06-0.77-0.09-1.15c1.93-2.7-1.09-5.89-2-8.4
		c0.01-2.83,0.38-5.29-1.95-7.21c-0.11-1.42-0.22-2.84-0.33-4.26c0.54-3.94-2.39-8.94-2.75-13.29c-0.16-0.72-0.2-1.64-1.22-1.86
		c-0.07-0.37-0.13-0.74-0.2-1.12c1.82-2.96-1.62-5.66-1.33-8.8c-1.47-10.49-5.45-20.41-6.92-30.85c-2.8-3.12-0.97-7.59-2.65-10.78
		c-1.34-0.88-1.26-2.2-1.2-3.48c0.43-3.25-1.56-5.89-1.9-8.94c-0.45-2.5-0.85-5.07-2.69-7.06c-0.42-2.51,0.5-5.06-1.96-7.15
		c-0.53-3.63,0.57-7.21-2.04-10.19c-0.4-2.45,0.24-5.17-0.7-7.46c-3.61-9.27-3.49-19.83-7.4-28.62c-0.06-5.06-2.89-9.69-3.01-14.73
		c-1.39-1.56-1.4-3.46-1.37-5.38c-0.85-3.24-2.66-6.2-1.52-9.77c3.3,0.77,4,4.91,4.96,7.57c3.82,18.15,8.85,36.03,12.81,54.16
		c11.61,45.79,20.68,91.92,31.62,137.83c6.12,23.3,10.5,47.09,17.59,70.09c4,15.77,7.38,31.68,11.5,47.42
		c1.43,5.34,3.77,15.74-4.65,15.55c-54.47-0.93-108.87,0.8-163.41-0.45c-6.26-1.66-12.57-0.54-18.69,0.46
		c-11.45-0.01-22.9-0.19-34.35,0.09c-9.44-0.44-18.51-2.82-27.76-0.09c-12.76,0.01-25.51-0.01-38.26,0.02
		c-5.97-0.17-11.75-3.46-17.74-1.25c-12.78,2.77-26,0.43-38.97,1.3c-9.87,0-19.34-2.8-29.03-0.06c-16.57,0.6-33.03-0.63-49.4-1.56
		c-16.36,3.23-33.68,1.13-50.34,1.33c-5.96-2.01-11.79-0.78-17.77,0.21c-15.65-0.44-31.31,1.26-46.87-1.02
		c-17.22,0.48-35.04,1.6-52.54,1.05c-6.97,0.15-13.87-3.22-20.73-0.77c-20.57,2.8-42.03-1.18-62.56,0.74
		c-14.36,0-28.72,0.01-43.09,0c-6.11-0.51-12-2.48-18.08-0.2c-13.06,0.58-26.32,0.03-39.44,0.22c-3.91,0.27-7.97-1.93-5.9-6.46
		c13.18-0.56,26.88,0.88,39.8-0.72c3.27-2.15,2.04-7.46,2.09-10.89c1.07-0.47,1.1-1.06,0.22-1.76c0.05-0.79,0.11-1.57,0.16-2.36
		c0.74-0.05,1.08-0.46,1.08-1.18c1.17-0.23,2.34-0.27,3.5,0.08c0.74,2.85-1.84,14.83,0.51,15.59c16.51,3.13,35.23,0.12,52.45,1.08
		c1.08-0.01,2.52,0.41,3.05-1.2c0.92-0.5,0.91-1.09,0.17-1.76c0.16-3.38-0.15-6.77,0.28-10.14c1.36-0.85,0.95-2.45,1.53-3.63
		c1.48-0.36,2.91-0.23,4.29,0.43c0.9,4.27-3.9,12.09,0.18,14.66c0.02,1.85,1.69,1.77,3.15,1.69c16.34-0.01,32.68-0.01,49.02-0.02
		c1.76,0.29,2.98-0.01,3.74-2c3.01-3.96-2.86-17.25,5.54-13.69c-0.01,1.02-0.03,2.05-0.04,3.07c-1.38,2.38-2.43,15.66,3.35,12.69
		c15.86-0.02,31.72-0.04,47.58-0.07c3.47,0.21,6.57-0.17,6.02-4.51c0.33-2.58-1.69-16.66,3.63-10.46
		c0.92,2.82-1.95,17.07,3.06,14.92c17.27-0.03,34.54,0.15,51.81-0.02c6.58-0.19-0.01-14.35,4.37-16.3
		c6.67,0.39-2.92,17.68,7.37,16.39c16.39,0,32.78-0.02,49.18-0.03c6.91,1,1.9-12.83,4.18-16.83c1.19-0.17,2.38-0.17,3.55,0.15
		c0.7,3.88-2.1,19.48,4.88,16.76c14.87-0.04,29.74-0.07,44.61-0.11c5.83-2.13,2.02-11.3,3-16.2c1.32-1.12,2.81-0.67,4.27-0.49
		c0.24,0.58,0.8,0.54,1.28,0.67c0.55,3.89,0.2,7.8,0.26,11.71c0.07,4.39,0.03,4.39,4.45,4.38c16.06-0.03,32.13-0.06,48.19-0.08
		c7.23-0.87,3.12-11.69,4.24-16.75c7.73-1.76,3.09,9.83,4.52,14.2c-0.85,1.31,0.43,4.33,2.09,2.53c17.4-0.29,35.44,1.04,52.53-0.49
		c5.21-2.8,0.34-11.7,2.9-16.33c0.82,0,1.64,0,2.46,0c2.69,3.99-2.62,16.44,3.6,16.86c15.83,0.02,31.66,0.04,47.5,0.04
		c2.18-0.28,5.72,0.97,6.84-1.39c1.16-4.97,0.17-10.31,0.5-15.41c1-0.22,2.01-0.19,3.02-0.04c2.2,4.74-1.68,12.32,2.77,15.75
		c0.27,1.34,1.68,1.1,2.73,1.12c17.21-0.12,34.44,0.22,51.63-0.16c5.62-2.5-2.78-14.72,2.62-16.39c5.97,0.79,0.48,16.25,5.9,16.49
		c17.14,0.01,34.29,0.02,51.43,0.02c9.26,0.76-0.61-13.88,3.81-16.25c5.01-0.61,1.24,16.64,6.42,16c17,0.78,34.23,0,51.3,0.26
		c4.87-1.6-2.25-18.33-2.47-22.91c-0.35-3.51-2.05-6.9-2.03-10.44c-0.02-0.79,0.15-1.66-0.48-2.28c-2.51-2.38-0.92-6.06-2.54-8.65
		c-2.56-3.16,0.02-7.68-2.76-11.02c-1.48-2.71,0.04-6.57-2.99-8.65c-0.06-0.97-0.12-1.95-0.18-2.92c1.65-2.07-1.29-4.53-1.91-6.59
		C904.02,631.81,904.81,628.46,902.2,626.31z"/>
	<path class="st1" d="M145.11,708.46c-1.79,4.51,1.64,6.77,5.9,6.46c13.12-0.19,26.38,0.37,39.44-0.22
		c6.06-2.27,11.99-0.31,18.08,0.2c14.36,0.01,28.72,0.01,43.09,0c20.53-1.92,41.99,2.06,62.56-0.74c6.88-2.46,13.77,0.92,20.73,0.77
		c17.51,0.54,35.32-0.58,52.54-1.06c15.55,2.28,31.22,0.58,46.87,1.02c6-0.99,11.78-2.21,17.77-0.21
		c16.65-0.19,33.99,1.9,50.34-1.32c16.38,0.92,32.84,2.15,49.4,1.55c9.7-2.74,19.15,0.07,29.03,0.07
		c12.97-0.87,26.19,1.47,38.97-1.3c5.99-2.21,11.77,1.08,17.74,1.25c12.75-0.03,25.51-0.01,38.26-0.02
		c9.24-2.73,18.32-0.34,27.76,0.1c11.44-0.28,22.9-0.1,34.35-0.09c6.12-1,12.43-2.11,18.69-0.46c54.54,1.26,108.94-0.47,163.41,0.45
		c14.22-0.58-0.84-29.54-0.84-37.94c-7.79-31.74-16.18-63.27-23.61-95.13c-10.94-45.91-20.01-92.04-31.62-137.83
		c-3.96-18.13-8.99-36.01-12.82-54.16c-0.82-2.83-1.82-6.6-4.96-7.57c-1.14,3.58,0.67,6.53,1.52,9.77
		c-0.03,1.92-0.02,3.82,1.37,5.38c-0.04,4.79,2.88,9.05,2.88,13.86c-0.03,0.29-0.04,0.72,0.13,0.87c2.14,1.84,1.43,4.42,1.84,6.71
		c1.94,8.99,5.37,18.03,6.03,27.18c-1.7-0.79-2.21-2.19-2.1-3.95c-2.94-13.72-6.39-27.65-9.78-41.4
		c-0.14-3.93-9.21-26.68-3.06-25.89c12.83,5.98,11.94,21.79,15.39,33.59c3.33,12.52,5.71,25.26,9.38,37.41
		c1.91,13.12,6.56,26.08,8.68,39.06c13.1,49.32,23.08,99.62,35.66,149.09c4.09,17.58,8.16,35.55,12.65,52.99
		c2.35,11.89,12.77,34.54-8.41,32.78c-12.25-0.02-24.5-0.02-36.76-0.02c-6.15-1.36-11.82-1.64-17.92-0.01
		c-16.89-0.32-34.1,0.63-50.85-0.35c-3.21-2.21-6.47,0.73-9.89,0.37c-16.19-0.76-33.08,1.48-48.92-0.87
		c-4.04-0.42-8.68-1.05-12.66,0.75c-0.55,0.3-1.38,0.11-2.08,0.11c-15.32-0.64-31.19,1.31-46.26-0.76
		c-5.47-1.38-10.78,0.03-15.95,0.76c-13.76,0-27.52,0-41.28,0c-2.34,0.5-4.06-1.48-6.37-1.18c-4.01,0.39-8.46-1.02-12.15,0.88
		c-19.34,1.02-39.27,0.15-58.44-0.87c-14.52,2.8-29.63,0.68-44.32,1.04c-9.19-3.45-18.48,1.53-27.82,0.09
		c-12.68-0.48-26.12,1.51-38.27-1.13c-18.5,1.33-37.25,1.31-56.08,1.15c-4.26-0.69-8.54-2.11-12.98-1.05
		c-16.31,2.53-32.8,0.5-49.24,1.05c-4.55-1.34-9.17-1.33-13.86-1.15c-8.24,2.42-16.67,0.85-25.01,1.12
		c-27.93-0.18-55.36-0.03-83.44,0.04c-2.37,0.54-4.32-1.23-6.68-1.15c-3.99-0.45-7.89,0.39-11.8,1.15
		c-14.06,0-28.12,0.01-42.18-0.01c-5.52,0.34-10.38-4.82-8.51-10.36C139.58,707.56,143.29,708.35,145.11,708.46z"/>
	<path class="st1" d="M174.06,581.85c10.94-45.91,20.01-92.04,31.62-137.83c0.22-0.98,0.44-1.97,0.67-2.95v-20.91
		c-2.04,8.66-3.96,17.31-6.48,25.67c-1.91,13.12-6.56,26.08-8.68,39.06c-13.1,49.32-23.08,99.62-35.66,149.09
		c-4.09,17.58-8.16,35.55-12.65,52.99c-2.35,11.89-12.77,34.54,8.41,32.78c8.64-0.01,17.28-0.01,25.93-0.01v-5.11
		c-9.2,0.03-18.39,0.11-27.59,0.27c-14.22-0.58,0.84-29.54,0.84-37.94C158.24,645.24,166.63,613.7,174.06,581.85z"/>
	<path class="st1" d="M593.37,468.68c-2.71,1.73-5.14-0.36-4.79,4.83c2.62,64.32-5.07,135.07,2.7,196.34
		c92.24-0.88,185.25,1.67,277.12-0.89c4.46-3.74-1.93-9.55,0.03-14.37c2.84,2.75,1.7,6.96,3.05,10.37c1.41,4.51-3.36,6.56-7.14,6.01
		c-90.57,0.01-181.14,0-271.71,0.01c-2.4,0.17-5.36-0.2-5.23-3.29c-0.04-64.89,0-129.79-0.02-194.68
		C587.29,468.5,588.74,467,593.37,468.68z"/>
	<path class="st1" d="M868.18,652.29c-6.67-20.07-9.19-42.15-14.48-62.78c-6.17-35.38-16.26-70.33-20.94-105.82
		c7.51,24.67,10.94,52.39,17.06,78.04c5.02,21.91,9,44.25,14.04,65.88C864.6,635.78,868.78,644.44,868.18,652.29z"/>
	<path class="st1" d="M864.19,465.6c1.84,1.99,2.24,4.56,2.69,7.06c0.34,3.05,2.33,5.69,1.9,8.94c-0.05,1.29-0.13,2.61,1.2,3.48
		c1.68,3.18-0.14,7.65,2.66,10.78c1.47,10.44,5.45,20.35,6.92,30.85c-0.29,3.15,3.15,5.83,1.33,8.8c-3.78-2.52-0.55-7.96-3.94-11.05
		c-0.75-1.23,0.16-3.46-0.46-4.7c-1.94-3.6-1.21-7.86-3.01-11.45c-2.05-8.88-5.08-17.7-5.96-26.93c-1.4-3.74-1.98-7.84-3.29-11.68
		C863.62,468.48,863.72,466.98,864.19,465.6z"/>
	<path class="st1" d="M889.42,572.79c3.77,2.08,1.17,6.63,3.55,9.62c1.95,2.35,0,6,2.21,8.15c1.32,6.44,2.79,13.22,4.16,19.93
		c0.75,4.55,3.6,9.69,2.75,14.1c-3.67-1.92-1.48-6.13-3.53-9.05c-1.81-2.41-0.28-5.93-2.23-8.19
		C894.54,596.09,890.33,584.3,889.42,572.79z"/>
	<path class="st1" d="M906.39,644.38c3.03,2.09,1.51,5.93,2.99,8.65c2.78,3.34,0.2,7.86,2.76,11.02c1.62,2.58,0.03,6.26,2.54,8.64
		c0.63,0.62,0.46,1.49,0.48,2.28c0.75,9.44,5.18,18.78,5.83,28.07c-4.24-0.93-0.86-7.09-3.72-9.85c-0.49-0.78-0.14-1.8-0.39-2.64
		C913,675.36,908.73,659.64,906.39,644.38z"/>
	<path class="st1" d="M440.15,707.78c-5.77-1.98,1.62-15.59-4.52-15.85c-4.38,1.94,2.21,16.12-4.37,16.3
		c1.69-4.3,0.05-9.05,0.81-13.57c0.34-3.52,4.34-5.14,7.22-3.07C441.59,696.24,439.55,702.58,440.15,707.78z"/>
	<path class="st1" d="M379.45,708.25c-6.41,2.76,0.51-17.51-5.37-16.29c-4.23,1.65,2.34,16.54-4.33,16.2
		c3.04-4.65-3.26-17.08,4.54-17.32C382.28,690.94,375.88,703.41,379.45,708.25z"/>
	<path class="st1" d="M868.37,708.06c-5.17,0.64-1.42-16.62-6.42-16c-4.08,1.57,4.22,15.99-2.32,16.09
		c1.78-5.1-0.55-10.57-0.35-15.77c0.87-2.24,7.35-1.76,7.06,0.89C866.43,698.28,867.4,703.17,868.37,708.06z"/>
	<path class="st1" d="M806.71,708.28c-5.4-0.21,0.05-15.73-5.9-16.49c-5.39,1.65,3,13.9-2.62,16.38c1.88-5.26-5.14-19.21,4.54-17.23
		C808.51,691.94,803.37,703.93,806.71,708.28z"/>
	<path class="st1" d="M315.86,692.61c-10.11-4.61,0.54,17.03-9.28,15.69c5.66-4.54-2.22-20.19,8.59-17.27
		C315.81,691.28,316.5,691.71,315.86,692.61z"/>
	<path class="st1" d="M615.09,691.5c-1.11,5.05,2.98,15.88-4.24,16.75c-0.17-1.79,1.26-3.03,1.54-4.74
		C613.72,700.31,610.59,691.45,615.09,691.5z"/>
	<path class="st1" d="M683.2,708.26c-6.23-0.42-0.91-12.86-3.61-16.86C685.51,690.36,680.76,704.53,683.2,708.26z"/>
	<path class="st1" d="M677.14,691.41c-2.56,4.63,2.31,13.53-2.9,16.33C675.16,704.14,671.58,690.25,677.14,691.41z"/>
	<path class="st1" d="M743.83,707.21c-4.45-3.43-0.57-11.01-2.77-15.75C746.27,690.63,743.38,703.7,743.83,707.21z"/>
	<path class="st1" d="M504.78,708.37c-6.99,2.71-4.17-12.86-4.88-16.76C504.99,692.16,498.06,706.73,504.78,708.37z"/>
	<path class="st1" d="M738.03,691.5c-0.85,3.63,2.24,16.5-2.54,16.64c0.03-1.71,1.79-2.88,1.37-4.78
		C736.66,700.58,733.07,691.26,738.03,691.5z"/>
	<path class="st1" d="M496.35,691.47c-2.25,3.99,2.69,17.84-4.18,16.83C497.88,705.39,491.27,693.18,496.35,691.47z"/>
	<path class="st1" d="M881.09,536.63c1.01,0.22,1.05,1.14,1.22,1.86c0.36,4.35,3.29,9.35,2.75,13.29c-2.15-1.51-1.93-3.95-2.37-6.11
		C882.26,542.52,879.79,540,881.09,536.63z"/>
	<path class="st1" d="M552.39,692.06c-0.97,4.9,2.82,14.07-3,16.2C553.25,704.1,549.3,693.4,552.39,692.06z"/>
	<path class="st1" d="M254.41,706.64c-4.08-2.56,0.73-10.38-0.18-14.66C256.58,694.44,253.98,702.84,254.41,706.64z"/>
	<path class="st1" d="M319.17,708.37c-5.81,2.96-4.7-10.31-3.35-12.69C317.44,699.8,313.85,706.28,319.17,708.37z"/>
	<path class="st1" d="M191.72,701.25c-0.72-3.12,0.96-6.39,0.24-9.63C194.42,690.81,193.66,700.7,191.72,701.25z"/>
	<path class="st1" d="M887.34,563.24c0.9,2.5,3.93,5.7,2,8.4C888.41,569.12,885.83,565.81,887.34,563.24z"/>
	<path class="st1" d="M186.88,697.87c0.59,3.07,0.79,8.06-1.97,9.86c-0.24-2.64,1.44-5.14,1.05-7.88
		C185.9,699.05,185.93,698.23,186.88,697.87z"/>
	<path class="st1" d="M904.3,634.87c0.62,2.06,3.56,4.52,1.91,6.59C904.28,639.64,903.29,637.54,904.3,634.87z"/>
	<path class="st1" d="M860.19,448.26c1.24,2.1,2.66,4.16,1.65,6.81C860.14,453.35,859.53,450.83,860.19,448.26z"/>
	<path class="st1" d="M832.22,479.71c-1.73-2.02-1.86-4.45-1.73-6.93C832.42,474.75,832.34,477.23,832.22,479.71z"/>
	<path class="st1" d="M902.2,626.31c1.03,1.34,2.43,2.52,1.89,4.52C901.66,629.85,901.64,629.8,902.2,626.31z"/>
	<path class="st1" d="M885.38,556.03c1.08,1.48,2.77,2.74,1.82,4.96C885.6,559.7,884.58,558.2,885.38,556.03z"/>
	<path class="st1" d="M862.23,458.45c1.44,1.29,2.18,3.37,1.71,4.82C862.31,462.05,861.64,460.48,862.23,458.45z"/>
	<path class="st1" d="M621.71,708.23c-1.66,1.8-2.94-1.22-2.09-2.53C620.72,706.21,621.05,707.36,621.71,708.23z"/>
	<path class="st1" d="M249.95,691.55c-0.58,1.18-0.18,2.78-1.53,3.63C247.91,692.59,248.06,692.24,249.95,691.55z"/>
	<path class="st1" d="M830.34,471.1c-0.84-0.59-1.72-1.14-1.98-2.24C830.37,468.88,830.65,469.2,830.34,471.1z"/>
	<path class="st1" d="M248.13,705.32c0.74,0.66,0.75,1.26-0.17,1.76C247.23,706.41,247.3,705.83,248.13,705.32z"/>
	<path class="st1" d="M557.95,692.24c-0.48-0.13-1.04-0.09-1.28-0.67C557.07,690.46,558.74,691.29,557.95,692.24z"/>
	<path class="st1" d="M187.22,695.08c0.89,0.7,0.85,1.3-0.22,1.76C186.35,696.16,186.42,695.57,187.22,695.08z"/>
	<path class="st1" d="M188.46,691.53c-0.01,0.72-0.35,1.13-1.08,1.18C187.13,691.76,187.48,691.36,188.46,691.53z"/>
	<path class="st1" d="M192.47,707.2c-0.92-0.12-1.14-0.64-0.83-1.46C192.43,705.93,192.83,706.35,192.47,707.2z"/>
	<path class="st1" d="M832.61,482.54c-0.64-0.3-0.75-0.68-0.15-1.14C833.23,481.68,833.38,482.05,832.61,482.54z"/>
	<g>
		<path class="st0" d="M680.38,644.11c-0.15,0.71-0.16,1.42,0.05,2.12c-1.91,3.15,2.83,11.28-3.25,11.03
			c-22.17,0.03-44.34,0.04-66.52,0.03c-2.43,0-2.79-0.3-2.82-2.53c-0.09-7.08-0.15-14.16-0.16-21.25c0-2.7,0.97-3.54,3.99-3.54
			c21.37-0.01,42.74-0.01,64.11,0C681.67,629.17,677.61,642.28,680.38,644.11z"/>
		<path class="st1" d="M680.38,644.11c-2.77-1.82,1.28-14.94-4.59-14.13c-21.37-0.01-42.74-0.01-64.11,0c-3.02,0-4,0.84-3.99,3.54
			c0.01,7.08,0.07,14.16,0.16,21.25c0.03,2.23,0.38,2.53,2.82,2.53c22.17,0,44.34-0.01,66.52-0.04c6.1,0.26,1.32-7.89,3.25-11.03
			c2.06,2.26,0.49,6.34,0.99,9.21c-0.04,2.19-0.85,2.89-3.27,2.98c-22.99,0.01-46,0.02-69,0.01c-5.16,1.79-1.78-22.41-2.75-26.24
			c0-2.53,1.1-3.31,4.3-3.31c21.49-0.04,42.98,0.05,64.48,0.01c6.16-0.02,5.29,0.19,5.43,4.95
			C680.39,637.21,681.37,640.91,680.38,644.11z"/>
	</g>
	<g>
		<path class="st3" d="M764.46,644.38c-0.13,0.7-0.11,1.39,0.12,2.08c-1.8,3.09,3.19,11.07-2.89,10.82
			c-22.17,0.03-44.34,0.04-66.52,0.03c-2.43,0-2.8-0.3-2.9-2.49c-0.31-6.95-0.6-13.9-0.84-20.84c-0.09-2.65,0.86-3.47,3.88-3.47
			c21.37-0.01,42.74-0.01,64.11,0C765.26,629.73,761.63,642.59,764.46,644.38z"/>
		<path class="st1" d="M764.46,644.38c-2.82-1.79,0.8-14.65-5.04-13.86c-21.37-0.01-42.74-0.01-64.11,0c-3.02,0-3.97,0.82-3.88,3.47
			c0.24,6.95,0.52,13.9,0.84,20.84c0.1,2.19,0.47,2.49,2.9,2.49c22.17,0,44.34-0.01,66.51-0.03c6.11,0.26,1.06-7.74,2.89-10.82
			c2.13,2.21,0.69,6.22,1.28,9.04c0.03,2.15-0.76,2.84-3.18,2.93c-22.99,0.01-46,0.02-69,0.01c-5.11,1.75-2.5-21.98-3.59-25.75
			c-0.08-2.49,0.99-3.25,4.2-3.25c21.49-0.04,42.99,0.05,64.48,0.01c6.16-0.02,5.3,0.18,5.59,4.86
			C764.25,637.61,765.34,641.24,764.46,644.38z"/>
	</g>
	<g>
		<path class="st4" d="M850.81,644.53c-0.08,0.69-0.01,1.38,0.27,2.06c-1.58,3.06,4.02,10.95-2.09,10.7
			c-22.17,0.03-44.34,0.04-66.51,0.03c-2.43,0-2.82-0.3-3.08-2.46c-0.83-6.87-1.63-13.75-2.38-20.62c-0.29-2.62,0.6-3.44,3.62-3.44
			c21.37-0.01,42.74-0.01,64.11,0C850.52,630.03,847.85,642.76,850.81,644.53z"/>
		<path class="st1" d="M850.81,644.53c-2.96-1.77-0.29-14.5-6.07-13.72c-21.37-0.01-42.74-0.01-64.11,0c-3.02,0-3.91,0.81-3.62,3.44
			c0.75,6.87,1.55,13.75,2.38,20.62c0.26,2.16,0.65,2.46,3.08,2.46c22.17,0,44.34-0.01,66.51-0.03c6.13,0.25,0.49-7.66,2.09-10.7
			c2.3,2.19,1.15,6.15,1.95,8.94c0.19,2.13-0.55,2.81-2.96,2.9c-22.99,0.01-46,0.02-68.99,0.01c-4.98,1.73-4.13-21.75-5.5-25.48
			c-0.26-2.46,0.75-3.21,3.96-3.22c21.49-0.04,42.99,0.05,64.48,0.01c6.16-0.02,5.31,0.18,5.95,4.81
			C850.09,637.84,851.46,641.42,850.81,644.53z"/>
	</g>
	<path class="st1" d="M704.65,572.33c-3.38,0.08-8.11-3.29-5.84-7c2.61-4.78-4.71-6.74,4.26-10.54c2.56-0.07,8.7,3.51,6.05,6.57
		C706.74,564.56,716.49,570.32,704.65,572.33z M704.17,565.02c-3.75-0.24-2.65,5.29,0.7,4.78
		C709.06,569.86,708.43,564.72,704.17,565.02z M703.72,561.41c2.26,0.6,2.44-3.23,0.01-2.99
		C701.44,558.14,701.2,561.73,703.72,561.41z"/>
	<path class="st1" d="M779.67,565.02c2.36,7.72-11.85,10.13-10.14,3.54c0.4-0.53,0.88-0.38,1.28-0.02c1.72,1.74,6.21,1.61,4.98-1.66
		c-0.32-0.54-0.86-0.3-1.34-0.17c-3.19,0.89-5.12-1.1-6.84-3.2C762.95,551.06,781.55,553.43,779.67,565.02z M775.47,561.38
		c0.56-3.51-5.44-4.19-5.43-0.68C769.36,563.55,775.87,564.85,775.47,561.38z"/>
	<path class="st1" d="M762.25,526.55c-2.4-9.34,12.64-10.45,10.95-4.31c-2.24,2.51-4.49-4.7-7.81-0.15
		c-0.49,0.89,0.17,2.43,1.3,1.82c4.74-1.88,11.01,3.84,7.73,8.48C770.01,539.74,761,532.88,762.25,526.55z M766.41,527.1
		c-1.73-5-4.35-0.61-2.58,2.02c1.62,0.77,0.97-1.7,2.31-1.54c0.28,1.16,0.44,2.37,0.88,3.47c0.63,1.45,3.54,2.01,4.11,0.27
		C772.3,528.41,769.14,525.72,766.41,527.1z"/>
	<path class="st1" d="M699.87,527.06c-3.05,0.59-4.75-0.99-3.71-3.99c0.65-1.41,0.36-3.49,2.11-4.1c3.94-2.06,12.73,1.83,3.38,2.07
		c-2.49-0.45-2.66,2.43-0.15,2.42c2.64,0.21,4.72,1.39,6.19,3.62c3.92,6.37-7.4,11.43-10.58,5.53c-0.29-5.12,4.61,1.88,6.48-0.89
		c2.79-2.61-0.72-5.57-3.73-4.72C699.87,527.01,699.87,527.04,699.87,527.06z"/>
	<path class="st1" d="M761.91,481.26c3.16,0.11,7.98,2.97,6.63,6c-1.63,3.55,4.78,6.94,0.27,9.72c-3.2,3.6-12.88-1.84-8.35-3.05
		c1.98,0.46,3.49,3.04,5.69,1.45c3.56-4.68-5.1-3.7-1.82-8.31c0.39-0.67,0.53-1.31,0.14-1.97c-2.05-2.68-4.01,2.13-5.7,0.78
		C756.51,484.03,760.6,481.42,761.91,481.26z"/>
	<path class="st1" d="M634.07,554.92c13.9-0.82,2.41,8.95,0.75,15.4c-5,5.2-2.56-6.75,0.08-8.14c4.73-5.38-4.36-1.55-5.15-4.49
		C629.41,555.23,632.26,554.54,634.07,554.92z"/>
	<path class="st1" d="M699.25,497.74c-15.38,0.78,9.48-10.04-0.16-13.69c-1.78-0.2-4.69,4.94-5.65,1.59
		c2.51-10.59,18.21-0.33,6.88,7.33c-0.56,0.63-1.65,1.12-1.16,2.2c0.42,0.91,1.42,0.45,2.18,0.53c1.37-0.22,4.54,0.61,2.11,1.91
		c-1.4,0.07-2.8,0.02-4.2,0.02C699.25,497.67,699.25,497.7,699.25,497.74z"/>
	<path class="st1" d="M711.57,606.85c-9.76,9.91-17.2-14.32-5.35-14.66c2.01,0.2,4.6-0.02,5.3,2.86c-1.23,0.01-0.92,1.52-1.81,1.87
		c-7.62-9.4-8.07,12.27-1.26,8.99c0.74-0.46,0.59-1.85,1.85-1.72C710.42,605.22,710.25,606.39,711.57,606.85z"/>
	<path class="st1" d="M638.38,522.78c0.33,0.76,0.26,1.57,0.22,2.36c-0.57,2.63,3.92,4.13,1.12,6.51c-1.26,1.88-2.28,4.99-3.94,1.18
		c-0.84-1.99-3.03-1.47-4.76-1.51c-7.08-0.47,1.47-7.92,3.25-10.25C635.19,523.58,635.53,523.72,638.38,522.78z M632.96,528.04
		c1.56,0.22,3.96-0.95,3-2.77c-0.32-0.68-0.95-0.45-1.55-0.27C632.55,525.6,632.53,525.61,632.96,528.04z M637.33,527.19
		c-0.63,1.49-2.43,2.85-0.86,4.08C639.09,533.06,638.99,528.53,637.33,527.19z"/>
	<path class="st1" d="M638.4,494.27c-0.44,1.63-0.21,4.2-2.57,3.81c-3.05-0.68-0.93-5.94-1.49-8.34c0.96-3.58-5.55-1.38-2.92-4.53
		C639.31,476.8,637.11,489.33,638.4,494.27z"/>
	<path class="st1" d="M709.71,596.92c0.89-0.34,0.58-1.85,1.81-1.87c0.25,0.41,0.51,0.82,0.76,1.22c-1.15,3.39,1.19,7.81-0.71,10.57
		C708.72,604.65,711.57,599.99,709.71,596.92z"/>
	<path class="st1" d="M712.47,605.33c-0.74-3-0.5-6.03-0.2-9.05C714.51,598.65,714.6,602.82,712.47,605.33z"/>
	<path class="st1" d="M638.38,522.78c-2.85,0.95-3.19,0.81-4.1-1.71c0.42-0.45,0.85-0.9,1.27-1.35c0.94,0.3,1.88,0.6,2.82,0.9
		C638.37,521.34,638.38,522.06,638.38,522.78z"/>
	<path class="st1" d="M638.37,520.62c-0.94-0.3-1.88-0.6-2.82-0.9C636.17,517.85,639.27,518.68,638.37,520.62z"/>
	<path class="st2" d="M704.17,565.02c4.26-0.3,4.9,4.84,0.7,4.78C701.52,570.3,700.42,564.78,704.17,565.02z"/>
	<path class="st2" d="M703.72,561.41c-5.07-0.63,1.49-5.76,1.79-1.19C705.43,561.53,704.45,561.4,703.72,561.41z"/>
	<path class="st2" d="M775.47,561.38c0.4,3.46-6.11,2.16-5.43-0.68C770.03,557.19,776.03,557.87,775.47,561.38z"/>
	<path class="st2" d="M766.41,527.1c2.73-1.38,5.9,1.31,4.71,4.23c-0.57,1.74-3.48,1.18-4.11-0.27c-0.43-1.1-0.59-2.31-0.88-3.47
		C766.22,527.42,766.31,527.26,766.41,527.1z"/>
	<path class="st1" d="M766.41,527.1c-0.1,0.16-0.19,0.32-0.27,0.48c-1.35-0.16-0.69,2.3-2.31,1.54
		C762.05,526.48,764.68,522.11,766.41,527.1z"/>
	<path class="st2" d="M709.71,596.92c0.87,2.37,0.81,4.82,0.58,7.27c-1.26-0.14-1.1,1.25-1.85,1.72
		C701.65,609.19,702.09,587.52,709.71,596.92z"/>
	<path class="st2" d="M632.96,528.04c-0.44-2.44-0.42-2.45,1.45-3.03c0.6-0.19,1.23-0.41,1.55,0.27
		C636.93,527.09,634.52,528.26,632.96,528.04z"/>
	<path class="st1" d="M637.33,527.19c1.66,1.33,1.76,5.86-0.86,4.08C634.89,530.04,636.7,528.68,637.33,527.19z"/>
	<g class="st5">
		<path class="st1" d="M622.19,476.6l0.37,27.31c18.3,0,36.61-0.01,54.91-0.03L676,476.61C658.06,476.6,640.13,476.6,622.19,476.6z"
			/>
		<path class="st1" d="M684.09,476.6l1.64,27.31c18.3,0,36.61-0.01,54.91-0.03l-2.75-27.28C719.96,476.6,702.03,476.6,684.09,476.6z
			"/>
		<path class="st1" d="M745.99,476.6l2.92,27.31c18.3,0,36.61-0.01,54.91-0.03l-4.03-27.28C781.86,476.6,763.93,476.6,745.99,476.6z
			"/>
		<path class="st1" d="M622.69,513.14l0.37,27.31c18.86,0,37.72-0.01,56.58-0.03l-1.52-27.28
			C659.64,513.14,640.36,513.14,622.69,513.14z"/>
		<path class="st1" d="M686.46,513.14l1.69,27.31c18.86,0,37.72-0.01,56.58-0.03l-2.84-27.28
			C723.41,513.14,704.94,513.14,686.46,513.14z"/>
		<path class="st1" d="M750.23,513.14l3.01,27.31c18.86,0,37.72-0.01,56.58-0.03l-4.16-27.28
			C787.18,513.14,768.71,513.14,750.23,513.14z"/>
		<path class="st1" d="M623.18,549.68l0.37,27.31c19.41,0,38.82-0.01,58.23-0.03l-1.61-27.28
			C661.18,549.67,640.86,549.68,623.18,549.68z"/>
		<path class="st1" d="M688.75,549.68l1.8,27.31c19.41,0,38.82-0.01,58.23-0.03l-3.04-27.28
			C726.75,549.67,707.75,549.68,688.75,549.68z"/>
		<path class="st1" d="M754.32,549.68l3.23,27.31c19.41,0,38.82-0.01,58.23-0.03l-4.47-27.28
			C792.32,549.67,773.32,549.68,754.32,549.68z"/>
		<path class="st1" d="M623.68,586.22l0.37,27.31c20.03,0,40.05-0.01,60.08-0.03l-1.68-27.28
			C662.86,586.21,643.27,586.21,623.68,586.22z"/>
		<path class="st1" d="M691.29,586.22l1.87,27.31c20.03,0,40.05-0.01,60.08-0.03l-3.18-27.28
			C730.47,586.21,710.88,586.21,691.29,586.22z"/>
		<path class="st1" d="M758.9,586.22l3.38,27.31c20.03,0,40.05-0.01,60.08-0.03l-4.68-27.28
			C798.08,586.21,778.49,586.21,758.9,586.22z"/>
	</g>
</g>
</svg>
